<svg preserveAspectRatio="none" viewBox="0 0 80 80" fill="none" xmlns="http://www.w3.org/2000/svg">
<path d="M45 6.66663C27.3733 6.66663 12.8367 19.7133 10.41 36.6666H0L13.3333 56.39L26.6667 36.6666H17.1767C19.5467 23.4266 31.09 13.3333 45 13.3333C60.6233 13.3333 73.3333 26.0433 73.3333 41.6666C73.3333 57.29 60.6233 70 45 70C34.95 70 26.1267 64.7233 21.0967 56.81L17.0967 62.7266C23.4833 71.18 33.59 76.6666 45 76.6666C64.3233 76.6666 80 60.9933 80 41.6666C80 22.34 64.3233 6.66663 45 6.66663Z" fill="#FEE715"/>
<path d="M45.0023 30.3334C51.4399 30.3334 56.6666 35.56 56.6666 41.9977C56.6666 48.4342 51.4399 53.6609 45.0023 53.6609C38.5658 53.6609 33.3391 48.4342 33.3391 41.9977C33.3391 35.56 38.5658 30.3334 45.0023 30.3334ZM45.0023 32.0834C39.5306 32.0834 35.0891 36.526 35.0891 41.9977C35.0891 47.4694 39.5306 51.9109 45.0023 51.9109C50.4739 51.9109 54.9166 47.4694 54.9166 41.9977C54.9166 36.526 50.4739 32.0834 45.0023 32.0834ZM49.7203 38.6249C49.4461 38.6249 47.5129 39.2969 45.0023 39.2969C42.4753 39.2969 40.5794 38.6249 40.2843 38.6249C39.8421 38.6249 39.4828 38.9842 39.4828 39.4264C39.4828 39.7974 39.7453 40.1252 40.1023 40.2069C40.8174 40.3935 41.5734 40.5487 42.1509 40.8392C42.6864 41.1087 43.0621 41.4995 43.0621 42.1692C43.0621 44.534 41.5151 46.7425 40.8921 47.789C40.8921 47.789 40.8921 47.789 40.8909 47.7902C40.8209 47.9127 40.7836 48.0515 40.7836 48.1915C40.7836 48.6337 41.1429 48.993 41.5863 48.993C41.7998 48.993 42.0028 48.909 42.1556 48.755C42.6771 48.2312 43.7108 46.6737 44.1833 45.9212C44.4178 45.549 44.6453 45.1967 45.0069 45.1955C45.3593 45.1967 45.5879 45.549 45.8213 45.9212C46.2938 46.6737 47.3274 48.2312 47.8489 48.755C48.0006 48.909 48.2036 48.993 48.4194 48.993C48.8616 48.993 49.2209 48.6337 49.2209 48.1915C49.2209 48.0527 49.1848 47.915 49.1066 47.7797C49.1066 47.7785 49.1054 47.7785 49.1054 47.7774C48.4673 46.7052 46.9424 44.5364 46.9424 42.1692C46.9424 41.4587 47.3729 41.0539 47.9353 40.7855C48.5408 40.4974 49.2968 40.3632 49.8976 40.208C50.2593 40.1252 50.5229 39.7974 50.5229 39.4264C50.5229 38.9842 50.1624 38.6249 49.7203 38.6249ZM45.0186 34.993C43.9978 34.993 43.1671 35.8249 43.1671 36.8515C43.1671 37.877 43.9978 38.7089 45.0186 38.7089C46.0406 38.7089 46.8689 37.877 46.8689 36.8515C46.8689 35.8249 46.0406 34.993 45.0186 34.993Z" fill="#FEE715"/>
</svg>
