<svg viewBox="0 0 20 20" fill="none" xmlns="http://www.w3.org/2000/svg">
<g clip-path="url(#clip0_549_3859)">
<mask id="mask0_549_3859" style="mask-type:luminance" maskUnits="userSpaceOnUse" x="0" y="0" >
<path d="M20 0H0V20H20V0Z" fill="white"/>
</mask>
<g mask="url(#mask0_549_3859)">
<path fill-rule="evenodd" clip-rule="evenodd" d="M5.6 17.0767C6.87667 17.8733 8.385 18.3333 10 18.3333C11.6117 18.3333 13.1175 17.875 14.3933 17.0809L15.4267 18.3991C13.8633 19.4117 12 20 10 20C7.9975 20 6.13167 19.41 4.56667 18.395L5.6 17.0767ZM10.9375 16.25L10.4425 16.5759C10.3783 16.6333 10.2842 16.6667 10.1867 16.6667H9.81417C9.71583 16.6667 9.62167 16.6333 9.5575 16.5759L9.0625 16.25H10.9375ZM20 15.8333H15C15 14.9124 15.7459 14.1667 16.6667 14.1667H18.3333C18.775 14.1667 19.1991 14.3426 19.5117 14.655C19.8241 14.9676 20 15.3909 20 15.8333ZM5 15.8333H0C0 14.9124 0.745833 14.1667 1.66667 14.1667H3.33333C3.775 14.1667 4.19917 14.3426 4.51167 14.655C4.82417 14.9676 5 15.3909 5 15.8333ZM10.955 15.4167C11.07 15.4167 11.1633 15.51 11.1633 15.625C11.1633 15.74 11.07 15.8333 10.955 15.8333H9.05583C8.94083 15.8333 8.8475 15.74 8.8475 15.625C8.8475 15.51 8.94083 15.4167 9.05583 15.4167H10.955ZM11.1608 15C11.1608 13.3317 12.5 12.6417 12.5 11.155C12.5 9.605 11.2492 8.75 9.99917 8.75C8.74917 8.75 7.5 9.60333 7.5 11.155C7.5 12.6417 8.83917 13.3542 8.83917 15H11.1608ZM17.5 10C18.535 10 19.375 10.84 19.375 11.875C19.375 12.91 18.535 13.75 17.5 13.75C16.465 13.75 15.625 12.91 15.625 11.875C15.625 10.84 16.465 10 17.5 10ZM2.5 10C3.535 10 4.375 10.84 4.375 11.875C4.375 12.91 3.535 13.75 2.5 13.75C1.465 13.75 0.625 12.91 0.625 11.875C0.625 10.84 1.465 10 2.5 10ZM13.225 11.9875L14.3491 12.4975L14.005 13.2567L12.9233 12.7667C13.0483 12.5167 13.1525 12.26 13.225 11.9875ZM6.77583 11.9875C6.84833 12.2642 6.94917 12.5133 7.07583 12.7667L5.99583 13.2567L5.65083 12.4975L6.77583 11.9875ZM14.5833 10.4167V11.25H13.3325C13.3408 10.9708 13.3158 10.69 13.255 10.4167H14.5833ZM6.745 10.4167C6.685 10.6892 6.66 10.9692 6.66833 11.2475V11.25H5.41667V10.4167H6.745ZM12.5183 8.98833L13.5533 8.25333L14.0358 8.93333L12.9925 9.67333C12.8708 9.43083 12.7133 9.20167 12.5183 8.98833ZM7.48167 8.9875C7.29 9.1975 7.13333 9.425 7.0075 9.67333L5.965 8.93333L6.44667 8.25333L7.48167 8.9875ZM11.1775 8.11583L11.73 6.995L12.4775 7.36417L11.9242 8.485C11.6925 8.33167 11.4408 8.20833 11.1775 8.11583ZM8.8225 8.115C8.56 8.20667 8.3075 8.33 8.075 8.48333L7.5225 7.36417L8.27 6.995L8.8225 8.115ZM6.66667 0.57V2.36083C4.21833 3.43167 2.3825 5.64583 1.835 8.32583L0.14 8.32333C0.75 4.71667 3.29417 1.76333 6.66667 0.57ZM13.3333 0.57C16.7059 1.76333 19.25 4.71667 19.86 8.32333L18.165 8.32583C17.6174 5.64583 15.7817 3.43167 13.3333 2.36083V0.57ZM10.4167 7.94167C10.1383 7.90917 9.87167 7.9075 9.58333 7.94083V6.66667H10.4167V7.94167ZM12.5 5.83333H7.5C7.5 4.9125 8.24583 4.16667 9.16667 4.16667H10.8333C11.275 4.16667 11.6992 4.3425 12.0117 4.655C12.3242 4.9675 12.5 5.39167 12.5 5.83333ZM10 0C11.035 0 11.875 0.84 11.875 1.875C11.875 2.91 11.035 3.75 10 3.75C8.965 3.75 8.125 2.91 8.125 1.875C8.125 0.84 8.965 0 10 0Z" fill="#FFFDFA"/>
</g>
</g>
<defs>
<clipPath id="clip0_549_3859">
<rect fill="white"/>
</clipPath>
</defs>
</svg>
