<svg viewBox="0 0 80 80" fill="none" xmlns="http://www.w3.org/2000/svg">
<path d="M45 6.66663C27.3733 6.66663 12.8367 19.7133 10.41 36.6666H0L13.3333 56.39L26.6667 36.6666H17.1767C19.5467 23.4266 31.09 13.3333 45 13.3333C60.6233 13.3333 73.3333 26.0433 73.3333 41.6666C73.3333 57.29 60.6233 70 45 70C34.95 70 26.1267 64.7233 21.0967 56.81L17.0967 62.7266C23.4833 71.18 33.59 76.6666 45 76.6666C64.3233 76.6666 80 60.9933 80 41.6666C80 22.34 64.3233 6.66663 45 6.66663Z" fill="#FEE715"/>
<path d="M46 33.5285L56.5 43.2993V54H49.5V47H42.5V54H35.5V43.2993L46 33.5285ZM60 40.1726L46 27.1666L32 40.1551L33.5878 41.8643L46 30.3516L58.4122 41.8818L60 40.1726Z" fill="#FEE715"/>
</svg>
