<svg width="25" height="25" viewBox="0 0 25 25" fill="none" xmlns="http://www.w3.org/2000/svg">
<path d="M23.9583 5.20833V19.6698L22.9167 19.7917V3.125C18.8594 3.24896 15.099 3.91875 12.4979 5.5375C9.89792 3.91875 6.14167 3.24896 2.08333 3.125V19.7917L1.04167 19.6698V5.20833H0V20.8333H9.43437C10.975 20.8333 11.1438 21.875 12.4979 21.875C13.8562 21.875 14.0198 20.8333 15.5625 20.8333H25V5.20833H23.9583ZM11.4583 19.4219C9.43125 18.6177 7.14896 18.1 4.16667 17.876V5.32292C6.61667 5.52813 9.37083 6.02604 11.4583 7.325V19.4219ZM20.8333 17.876C17.851 18.1 15.5687 18.6177 13.5417 19.4219V7.325C15.6292 6.02604 18.3833 5.52813 20.8333 5.32292V17.876Z" fill="#FEE715"/>
</svg>
