<svg viewBox="0 0 20 20" fill="none" xmlns="http://www.w3.org/2000/svg">
<g clip-path="url(#clip0_120_4097)">
<path d="M10 0.199951C4.72603 0.199951 0.452026 4.58795 0.452026 9.99995C0.452026 15.412 4.72803 19.8 10 19.8C15.274 19.8 19.548 15.412 19.548 9.99995C19.548 4.58795 15.274 0.199951 10 0.199951ZM12.866 18.802C12.406 18.8939 12.244 18.604 12.244 18.356C12.244 18.052 12.254 17.052 12.254 15.812C12.254 14.946 11.964 14.38 11.64 14.092C13.656 13.864 15.77 13.078 15.77 9.51595C15.77 8.50395 15.42 7.67395 14.84 7.02595C14.932 6.79195 15.244 5.84995 14.75 4.57195C14.75 4.57195 13.992 4.32195 12.264 5.52395C11.542 5.31795 10.768 5.21395 10 5.20995C9.23003 5.21395 8.45603 5.31595 7.73603 5.52395C6.00803 4.32395 5.24803 4.57195 5.24803 4.57195C4.75603 5.84995 5.06603 6.79195 5.16003 7.02595C4.58203 7.67395 4.23003 8.50195 4.23003 9.51595C4.23003 13.07 6.34203 13.866 8.35003 14.1C8.09203 14.332 7.85803 14.74 7.77603 15.34C7.26003 15.576 5.95003 15.986 5.14403 14.568C5.14403 14.568 4.66603 13.6779 3.75803 13.6119C3.75803 13.6119 2.87403 13.6 3.69603 14.176C3.69603 14.176 4.29003 14.46 4.70003 15.5319C4.70003 15.5319 5.23203 17.336 7.74803 16.776C7.75203 17.5499 7.76003 18.134 7.76003 18.354C7.76003 18.6 7.59603 18.886 7.14203 18.8C3.54603 17.574 0.956026 14.098 0.956026 9.99995C0.954026 4.87995 5.00403 0.727951 10 0.727951C14.996 0.727951 19.046 4.87995 19.046 10.004C19.046 14.1 16.456 17.5739 12.866 18.802Z" fill="#FEE715"/>
</g>
<defs>
<clipPath id="clip0_120_4097">
<rect width="20" height="20" fill="white"/>
</clipPath>
</defs>
</svg>
