<svg viewBox="0 0 80 80" fill="none" xmlns="http://www.w3.org/2000/svg">
<path d="M45 6.66666C27.3733 6.66666 12.8367 19.7133 10.41 36.6667H0L13.3333 56.39L26.6667 36.6667H17.1767C19.5467 23.4267 31.09 13.3333 45 13.3333C60.6233 13.3333 73.3333 26.0433 73.3333 41.6667C73.3333 57.29 60.6233 70 45 70C34.95 70 26.1267 64.7233 21.0967 56.81L17.0967 62.7267C23.4833 71.18 33.59 76.6667 45 76.6667C64.3233 76.6667 80 60.9933 80 41.6667C80 22.34 64.3233 6.66666 45 6.66666Z" fill="#FEE715"/>
<path d="M45.5047 29.8333C41.0095 29.8333 37.3335 33.5005 37.3335 37.9962C37.3335 40.7589 38.7238 43.2046 40.8371 44.6828V51.9982C40.8375 53.0355 42.0901 53.5564 42.8258 52.8252L45.5047 50.146L48.1723 52.8252C48.908 53.5564 50.1606 53.0355 50.161 51.9982V44.6874C52.2747 43.2096 53.6668 40.7612 53.6668 37.9962C53.6668 33.5005 50 29.8333 45.5047 29.8333ZM45.5047 32.1685C48.7393 32.1685 51.3319 34.7613 51.3319 37.9962C51.3319 41.2311 48.7393 43.8353 45.5047 43.8353C42.2701 43.8353 39.6662 41.2311 39.6662 37.9962C39.6662 34.7613 42.2701 32.1685 45.5047 32.1685ZM45.5047 33.3304C42.9419 33.3304 40.8371 35.4332 40.8371 37.9962C40.8371 40.5592 42.9419 42.6643 45.5047 42.6643C48.0675 42.6643 50.161 40.5592 50.161 37.9962C50.161 35.4332 48.0675 33.3304 45.5047 33.3304ZM45.5047 35.6633C46.8068 35.6633 47.8374 36.694 47.8374 37.9962C47.8374 39.2984 46.8068 40.3291 45.5047 40.3291C44.2026 40.3291 43.1698 39.2984 43.1698 37.9962C43.1698 36.694 44.2026 35.6633 45.5047 35.6633ZM43.1698 45.8151C44.6986 46.276 46.2657 46.288 47.8374 45.8151V49.1914L46.3225 47.6741C45.8676 47.2218 45.1328 47.2218 44.6778 47.6741L43.1698 49.1823V45.8151Z" fill="#FEE715"/>
</svg>
