<svg viewBox="0 0 20 20" fill="none" xmlns="http://www.w3.org/2000/svg">
<g clip-path="url(#clip0_120_4100)">
<path d="M17 0H3C1.34315 0 0 1.34315 0 3V17C0 18.6569 1.34315 20 3 20H17C18.6569 20 20 18.6569 20 17V3C20 1.34315 18.6569 0 17 0Z" fill="#101820"/>
<path d="M15.9531 4.05469C14.6836 2.78906 13.332 3.60937 12.4844 4.45312L4.48438 12.4531C3.63672 13.3008 2.75 14.5898 4.08594 15.9219C5.41797 17.2539 6.70312 16.3672 7.55078 15.5195L15.5508 7.51953C16.3984 6.67578 17.2187 5.32031 15.9531 4.05469ZM8.30859 3.72656L10.0039 5.42188L11.7266 3.69531C11.8437 3.57812 11.9609 3.46875 12.082 3.36719C11.9023 2.45703 11.3828 1.63281 10 1.63281C8.61719 1.63281 8.09766 2.46094 7.92187 3.37109C8.05078 3.48438 8.17969 3.59766 8.30859 3.72656ZM11.7266 16.3086L10.0039 14.5859L8.30859 16.2773C8.17969 16.4063 8.05469 16.5273 7.92578 16.6367C8.12109 17.5664 8.66797 18.4141 10 18.4141C11.3359 18.4141 11.8867 17.5586 12.0781 16.6289C11.9609 16.5273 11.8437 16.4258 11.7266 16.3086ZM7.58984 7.83203H4.32422C3.125 7.83203 1.58984 8.21094 1.58984 10C1.58984 11.3398 2.44531 11.8867 3.37891 12.0781C3.48828 11.9531 7.58984 7.83203 7.58984 7.83203ZM16.6328 7.92188C16.5312 8.03906 12.418 12.1719 12.418 12.1719H15.6367C16.8359 12.1719 18.3711 11.8867 18.3711 10C18.3711 8.62109 17.5469 8.10156 16.6328 7.92188ZM8.66016 6.76172L9.24219 6.17969L7.55078 4.48438C6.70312 3.63672 5.41797 2.75 4.08203 4.08594C3.10547 5.0625 3.32422 6.01562 3.83984 6.78516C4 6.77344 8.66016 6.76172 8.66016 6.76172ZM11.3437 13.2422L10.7578 13.8281L12.4844 15.5508C13.332 16.3984 14.6836 17.2188 15.9492 15.9531C16.8945 15.0078 16.6797 14.0117 16.1562 13.2188C15.9883 13.2305 11.3437 13.2422 11.3437 13.2422Z" fill="#FEE715"/>
</g>
<defs>
<clipPath id="clip0_120_4100">
<rect width="20" height="20" fill="white"/>
</clipPath>
</defs>
</svg>
