<svg width="25" height="25" viewBox="0 0 25 25" fill="none" xmlns="http://www.w3.org/2000/svg">
<g clip-path="url(#clip0_120_4146)">
<path d="M20.4167 20.4167C20.25 20.4167 20.0833 20.3333 20 20.1667C19.9167 19.9167 20 19.75 20.25 19.6667C22.8333 18.6667 24.1667 16.5 24.1667 13C24.1667 6.25 18.9167 0.833333 12.4167 0.833333C6 0.833333 0.833333 6.25 0.833333 12.9167C0.833333 16.0833 2.08333 18.0833 4.75 19.1667C5 19.25 5.08333 19.5 5 19.75C4.91667 20 4.66667 20.0833 4.41667 20C1.41667 18.75 0 16.4167 0 12.9167C0 5.83333 5.58333 0 12.4167 0C19.3333 0 25 5.83333 25 12.9167C25 16.75 23.5 19.25 20.5833 20.4167H20.4167Z" fill="#FEE715"/>
<path d="M12.5 24.9999C6.99996 24.9999 4.16663 23.3333 4.16663 19.9999C4.16663 17.4999 7.49996 15.8333 12.5 15.8333C17.5 15.8333 20.8333 17.4999 20.8333 19.9999C20.8333 23.3333 18 24.9999 12.5 24.9999ZM12.5 16.6666C8.08329 16.6666 4.99996 17.9999 4.99996 19.9999C4.99996 20.9999 4.99996 24.1666 12.5 24.1666C20 24.1666 20 20.9999 20 19.9999C20 17.9999 16.9166 16.6666 12.5 16.6666Z" fill="#FEE715"/>
<path d="M9.58333 21.6667C9.33333 21.6667 9.16667 21.5001 9.16667 21.2501V17.9167C9.16667 17.6667 9.33333 17.5001 9.58333 17.5001C9.83333 17.5001 10 17.6667 10 17.9167V21.2501C10 21.5001 9.83333 21.6667 9.58333 21.6667ZM15.4167 21.6667C15.1667 21.6667 15 21.5001 15 21.2501V17.9167C15 17.6667 15.1667 17.5001 15.4167 17.5001C15.6667 17.5001 15.8333 17.6667 15.8333 17.9167V21.2501C15.8333 21.5001 15.6667 21.6667 15.4167 21.6667ZM24.25 14.9167C24.1667 14.9167 24.0833 14.9167 24 14.8334C22.9167 13.9167 21.6667 12.3334 21.6667 10.0834C21.6667 8.91675 22.1667 7.66675 22.5 6.83342C22.5833 6.66675 22.75 6.58341 22.8333 6.58341C23 6.58341 23.1667 6.66675 23.25 6.83342C24.4167 9.00008 25 11.0834 25 13.0001C25 13.4167 24.9167 13.7501 24.8333 14.0834C24.75 14.2501 24.75 14.4167 24.6667 14.6667C24.6667 14.8334 24.5833 14.9167 24.4167 15.0001C24.3333 14.8334 24.3333 14.9167 24.25 14.9167ZM22.9167 7.91675C22.75 8.58341 22.5 9.33342 22.5 10.0001C22.5 11.5834 23.25 12.8334 24 13.6667C24.0833 13.4167 24.1667 13.1667 24.1667 12.9167C24.1667 11.3334 23.75 9.66675 22.9167 7.91675ZM0.583333 15.0001H0.416667C0.25 14.9167 0.166667 14.8334 0.166667 14.6667C0.0833333 14.0834 0 13.5001 0 12.9167C0 10.7501 0.5 8.58342 1.58333 6.66675C1.66667 6.50008 1.83333 6.41675 2 6.41675C2.16667 6.41675 2.33333 6.50008 2.33333 6.66675L2.5 7.08341C2.91667 7.91675 3.33333 9.00008 3.33333 10.0001C3.33333 12.2501 2 13.9167 0.833333 14.9167C0.75 15.0001 0.666667 15.0001 0.583333 15.0001ZM1.91667 7.83341C1.25 9.41675 0.833333 11.1667 0.833333 12.9167V13.7501C1.66667 12.8334 2.5 11.5834 2.5 10.0001C2.5 9.33342 2.16667 8.58341 1.91667 7.83341Z" fill="#FEE715"/>
<path d="M12.5 11.6667C9.24996 11.6667 6.66663 9.08333 6.66663 5.83333C6.66663 2.58333 9.24996 0 12.5 0C15.75 0 18.3333 2.58333 18.3333 5.83333C18.3333 9.08333 15.75 11.6667 12.5 11.6667ZM12.5 0.833333C9.74996 0.833333 7.49996 3.08333 7.49996 5.83333C7.49996 8.58333 9.74996 10.8333 12.5 10.8333C15.25 10.8333 17.5 8.58333 17.5 5.83333C17.5 3.08333 15.25 0.833333 12.5 0.833333Z" fill="#FEE715"/>
</g>
<defs>
<clipPath id="clip0_120_4146">
<rect width="25" height="25" fill="white"/>
</clipPath>
</defs>
</svg>
