<svg width="25" height="25" viewBox="0 0 25 25" fill="none" xmlns="http://www.w3.org/2000/svg">
<g clip-path="url(#clip0_120_4010)">
<path d="M11.8603 0.0695424C10.9384 0.271071 10.0466 0.97132 9.63841 1.81774C9.41673 2.27131 9.28076 2.78508 9.28076 3.16798C9.28076 3.98915 9.63841 4.86592 10.2279 5.47051C10.4195 5.67714 10.4899 5.78275 10.4899 5.89372C10.4899 6.02969 10.4797 6.03989 10.2884 6.03989H10.0869V6.44295V6.846H10.2884H10.4899V7.45059V8.05518H12.5052H14.5205V7.45059V6.846H14.722H14.9236V6.44295V6.03989H14.722C14.5307 6.03989 14.5205 6.02969 14.5205 5.88377C14.5205 5.7779 14.5659 5.69244 14.6715 5.60163C14.8881 5.42536 15.246 4.90648 15.4274 4.51848C15.6037 4.13557 15.7297 3.6116 15.7297 3.21849C15.7297 2.07488 14.969 0.875657 13.9108 0.356784C13.2157 0.0141859 12.5555 -0.0817318 11.8603 0.0695424ZM13.1249 0.875657C14.0218 1.10754 14.6917 1.80269 14.8782 2.69962C14.9588 3.09247 14.9083 3.72741 14.7723 4.09016C14.6363 4.45292 14.3238 4.86618 13.9812 5.13301L13.7141 5.34474V5.69244V6.04014H13.3111H12.908L12.9131 5.19373V4.35241L13.1198 4.20113C13.8856 3.64196 13.9006 2.85089 13.155 2.25626C12.6562 1.8532 12.0164 1.97412 11.5427 2.56875C11.1297 3.08252 11.2708 3.74757 11.8904 4.20113L12.0971 4.35241V5.19347L12.1022 6.03989H11.6991H11.296V5.69219V5.34449L11.0341 5.13276C10.4598 4.68429 10.1473 4.09986 10.1019 3.39451C10.0213 2.19044 10.7267 1.1828 11.8654 0.875401C12.2129 0.784841 12.7672 0.779994 13.1249 0.875657ZM12.8075 2.9162C12.8731 2.98176 12.9083 3.08252 12.9083 3.21849C12.9083 3.35446 12.8731 3.45522 12.8075 3.52078C12.742 3.58634 12.6412 3.62155 12.5052 3.62155C12.2381 3.62155 12.1022 3.48558 12.1022 3.21849C12.1022 3.08252 12.1374 2.98176 12.2029 2.9162C12.2685 2.85064 12.3693 2.81543 12.5052 2.81543C12.6412 2.81543 12.742 2.85064 12.8075 2.9162ZM13.7144 7.04753V7.24906H12.5052H11.296V7.04753V6.846H12.5052H13.7144V7.04753Z" fill="#FEE715"/>
<path d="M5.31536 7.32456C3.55212 7.6419 2.13631 8.9771 1.7131 10.7153C1.23964 12.66 2.24728 14.7408 4.1164 15.678C4.80669 16.0206 5.12914 16.0913 6.03092 16.0913C6.52964 16.0913 6.91764 16.0661 7.04366 16.0257L7.25029 15.9653L7.14443 15.5875C7.05361 15.25 7.02861 15.2097 6.9378 15.2349C6.57504 15.3357 6.01587 15.3709 5.58755 15.3156C4.67047 15.1946 4.07609 14.9023 3.4363 14.2577C2.70085 13.5171 2.40851 12.7865 2.40851 11.7082C2.40851 11.0179 2.48401 10.6551 2.7511 10.0858C3.0937 9.36026 3.66308 8.78092 4.36333 8.43833C4.847 8.20159 5.22991 8.10568 5.82939 8.07047C6.84724 8.01001 7.76916 8.33756 8.48957 9.01255L8.87247 9.3702L9.17986 9.12837L9.48726 8.88654L9.0893 8.50363C8.09161 7.53629 6.64545 7.08273 5.31536 7.32456Z" fill="#FEE715"/>
<path d="M18.289 7.29918C17.8002 7.37979 17.0597 7.65198 16.6314 7.91397C16.2584 8.1456 15.5281 8.77059 15.5281 8.86115C15.5281 8.88131 15.6541 9.00732 15.8051 9.13819L16.0822 9.37492L16.475 9.01217C17.2056 8.33692 18.1125 8.01473 19.1301 8.07009C19.7296 8.10529 20.1125 8.20121 20.5961 8.43794C21.503 8.88641 22.1831 9.71778 22.4604 10.7254C22.6015 11.2394 22.5915 12.2471 22.4351 12.7407C22.1178 13.7634 21.4931 14.5193 20.5913 14.9575C19.9362 15.28 19.1604 15.4111 18.5005 15.3152C18.2939 15.2851 18.0773 15.2547 18.0268 15.2448C17.9462 15.2348 17.911 15.295 17.8355 15.557C17.7801 15.7333 17.7497 15.9047 17.765 15.9399C17.8255 16.1062 19.1959 16.1766 19.8206 16.0458C21.4431 15.6981 22.8033 14.3881 23.2466 12.7305C23.3979 12.156 23.3979 11.2341 23.2415 10.6497C22.7277 8.73003 21.0398 7.34969 19.1051 7.27392C18.813 7.26398 18.4451 7.27392 18.289 7.29918Z" fill="#FEE715"/>
<path d="M11.7647 9.33472C9.98131 9.67732 8.58566 10.9924 8.16246 12.7306C8.03159 13.2798 8.02139 14.1211 8.1423 14.625C8.52521 16.2321 9.68897 17.4767 11.2711 17.9805C11.7446 18.1318 12.8178 18.177 13.3417 18.0663C14.1277 17.8999 14.8683 17.5071 15.4779 16.9377C16.1379 16.3229 16.5662 15.6025 16.7981 14.7461C16.9494 14.1717 16.9494 13.2497 16.793 12.6653C16.2792 10.7457 14.5963 9.37018 12.6565 9.28957C12.3241 9.27426 11.9915 9.29441 11.7647 9.33472ZM13.4879 10.1964C14.7121 10.5291 15.6795 11.5064 16.0121 12.7408C16.1381 13.1944 16.1381 14.2069 16.0172 14.6553C15.745 15.678 15.055 16.5295 14.143 16.9729C13.5838 17.2448 13.1504 17.3408 12.4805 17.3408C11.8004 17.3408 11.3721 17.2451 10.7928 16.963C10.4451 16.7915 10.2788 16.6658 9.91116 16.2928C9.15046 15.537 8.85811 14.8166 8.85811 13.7234C8.85811 13.0332 8.93362 12.6704 9.20581 12.0962C9.68438 11.0783 10.5461 10.4033 11.6846 10.1513C12.1124 10.0554 13.0545 10.0755 13.4879 10.1964Z" fill="#FEE715"/>
<path d="M2.05074 15.7183C1.13876 16.454 0.47372 17.517 0.156376 18.7413C0.0556117 19.1293 0.0456628 19.3206 0.0252548 21.0639L0 22.9685H2.62497H5.24995V22.5654V22.1624H3.02803H0.806369L0.826522 20.6407C0.846675 19.1494 0.851777 19.104 0.987745 18.6606C1.26478 17.7436 1.80406 16.9374 2.51936 16.3632C2.73109 16.192 2.90227 16.0257 2.89232 16.0005C2.85711 15.8895 2.52446 15.4109 2.48416 15.4109C2.4538 15.4109 2.26248 15.552 2.05074 15.7183Z" fill="#FEE715"/>
<path d="M22.3903 15.5469C22.3401 15.6275 22.2492 15.7737 22.1837 15.8744L22.073 16.0609L22.3148 16.2221C23.0755 16.7461 23.7204 17.668 24.0278 18.6708C24.1587 19.104 24.1638 19.1596 24.1839 20.6359L24.2041 22.1624H22.1837C20.1988 22.1624 20.1633 22.1624 20.1633 22.0616C20.1633 21.9711 20.1281 21.9609 19.7602 21.9609H19.3572V22.4647V22.9685H22.1786H25V21.3109C25 20.3989 24.9747 19.477 24.9446 19.2604C24.7783 18.0765 24.214 16.9428 23.3625 16.0913C23.0602 15.7839 22.5916 15.4112 22.511 15.4112C22.501 15.4109 22.4457 15.4714 22.3903 15.5469Z" fill="#FEE715"/>
<path d="M8.49948 17.7335C7.58749 18.4692 6.92245 19.5322 6.60511 20.7564C6.50434 21.1444 6.49439 21.3357 6.47399 23.0791L6.44873 24.9834H12.5048H18.5609L18.5356 23.0839C18.5154 21.3457 18.5052 21.1442 18.4045 20.7612C18.0619 19.421 17.2708 18.2472 16.2379 17.5268L16.0667 17.4059L15.9609 17.5419C15.9004 17.6174 15.8048 17.7687 15.7392 17.8743L15.6282 18.0758L15.865 18.237C16.6257 18.761 17.2706 19.6829 17.578 20.6857C17.7088 21.1189 17.7139 21.1745 17.7341 22.6556L17.7542 24.1773H15.2553C13.8798 24.1773 12.7563 24.1671 12.7563 24.1571C12.7563 24.1421 13.4114 23.0084 14.2124 21.638L15.6685 19.1442L15.4369 19.0082C15.3058 18.9327 15.1497 18.837 15.0943 18.8016C14.9884 18.736 14.9481 18.7914 13.7642 20.8271C13.0941 21.9758 12.5249 22.9179 12.5048 22.9179C12.4846 22.9179 11.9153 21.9758 11.2451 20.8271C10.0612 18.7916 10.0209 18.7363 9.91502 18.8016C9.85967 18.8368 9.70329 18.9324 9.57242 19.0082L9.34079 19.1442L10.7969 21.638C11.5979 23.0084 12.253 24.1421 12.253 24.1571C12.253 24.1671 11.1296 24.1773 9.75405 24.1773H7.2551L7.27525 22.6809C7.29541 21.3255 7.31046 21.1391 7.40612 20.7763C7.68316 19.7636 8.36351 18.7761 9.14437 18.237L9.3862 18.0758L9.27523 17.8896C9.08391 17.5771 8.97294 17.4261 8.92753 17.4261C8.90253 17.4261 8.71121 17.5671 8.49948 17.7335Z" fill="#FEE715"/>
</g>
<defs>
<clipPath id="clip0_120_4010">
<rect width="25" height="25" fill="white"/>
</clipPath>
</defs>
</svg>
