<svg width="25" height="25" viewBox="0 0 25 25" fill="none" xmlns="http://www.w3.org/2000/svg">
<g clip-path="url(#clip0_120_4153)">
<path d="M11.3823 0.281234C9.86727 0.420234 8.46252 0.818233 7.09127 1.49898C5.74877 2.16048 4.71802 2.91323 3.68727 3.97273C2.12927 5.57423 1.04577 7.55898 0.528018 9.73098L0.499268 9.86523H3.73052H6.96177L7.02402 9.70698C7.05752 9.62548 7.23027 9.33773 7.40752 9.07423C8.29452 7.74148 9.66077 6.83048 11.2958 6.48048C11.8568 6.35573 13.1175 6.36073 13.6833 6.48048C15.299 6.83048 16.6798 7.75098 17.5618 9.07423C17.739 9.33798 17.9118 9.62548 17.9453 9.70698L18.0075 9.86523H21.2388H24.47L24.4413 9.73098C23.5783 6.10173 21.114 3.03823 17.758 1.43198C15.7693 0.482734 13.535 0.0799837 11.3823 0.281234Z" fill="#FEE715"/>
<path d="M11.8378 7.28078C10.5913 7.44853 9.3065 8.12928 8.52975 9.03553C8.19425 9.42853 8.00725 9.71153 7.74825 10.234C7.638 10.4498 7.523 10.6415 7.48925 10.6655C7.45575 10.6848 5.8305 10.7135 3.87925 10.7278L0.3315 10.7518L0.28825 11.0155C0.269 11.1593 0.25 11.8305 0.25 12.5018C0.25 13.173 0.26925 13.8443 0.28825 13.988L0.3315 14.2518L3.87925 14.2758C5.8305 14.2903 7.45575 14.3188 7.48925 14.338C7.52275 14.362 7.64275 14.568 7.75775 14.7935C8.92775 17.109 11.4688 18.25 13.9138 17.555C15.3425 17.1523 16.517 16.1695 17.2123 14.7935C17.3273 14.5635 17.4663 14.3525 17.5143 14.3238C17.5765 14.2903 18.7753 14.2758 21.11 14.2758H24.6148L24.6388 14.1655C24.7873 13.5088 24.7873 11.495 24.6388 10.8335L24.6148 10.728H21.11C18.8328 10.728 17.5768 10.7088 17.519 10.68C17.4663 10.6513 17.3178 10.4163 17.1835 10.1575C16.4213 8.67128 15.1315 7.68378 13.5255 7.35278C13.0555 7.25203 12.2693 7.21853 11.8378 7.28078ZM13.6118 8.25878C14.35 8.46003 15.3185 9.06428 15.774 9.60603C16.2248 10.1478 16.565 10.795 16.7328 11.423C16.8623 11.8975 16.8623 13.1058 16.7328 13.5805C16.3875 14.875 15.5055 15.92 14.2878 16.481C13.6453 16.7783 13.3338 16.8405 12.485 16.8405C11.6363 16.8405 11.3248 16.7783 10.6775 16.481C9.70425 16.0303 9.01875 15.3593 8.55375 14.405C8.199 13.6668 8.14625 13.4318 8.14625 12.5018C8.14625 11.5718 8.199 11.3368 8.55375 10.5985C9.1435 9.38078 10.251 8.50828 11.5743 8.21103C11.9913 8.11978 13.2043 8.14378 13.6118 8.25878Z" fill="#FEE715"/>
<path d="M11.924 9.93694C10.9365 10.1527 10.131 10.9677 9.92002 11.9602C9.79052 12.5594 9.86728 13.1204 10.1453 13.6909C10.3563 14.1224 10.8645 14.6307 11.296 14.8417C12.3508 15.3594 13.511 15.1677 14.3308 14.3479C15.376 13.3027 15.376 11.7014 14.3308 10.6562C13.6788 10.0042 12.811 9.74519 11.924 9.93694Z" fill="#FEE715"/>
<path d="M0.528018 15.2681C1.35752 18.7679 3.67302 21.7404 6.85177 23.3896C12.4083 26.2759 19.221 24.5066 22.697 19.2761C23.512 18.0489 24.1065 16.6919 24.442 15.2681L24.4708 15.1386H21.2395H18.008L17.9458 15.2921C17.8403 15.5414 17.3608 16.2414 17.0733 16.5674C16.3063 17.4206 15.472 17.9674 14.3885 18.3269C11.7803 19.1946 8.87977 18.1784 7.36002 15.8626C7.21127 15.6326 7.05802 15.3784 7.02452 15.2921L6.96227 15.1386H3.73077H0.499268L0.528018 15.2681Z" fill="#FEE715"/>
</g>
<defs>
<clipPath id="clip0_120_4153">
<rect width="25" height="25" fill="white"/>
</clipPath>
</defs>
</svg>
