<svg viewBox="0 0 20 20" fill="none" xmlns="http://www.w3.org/2000/svg">
<path d="M10.0033 1.66675C6.79243 1.66675 4.16675 4.28618 4.16675 7.49738C4.16675 9.47076 5.15979 11.2177 6.66931 12.2735V17.4988C6.66959 18.2398 7.56429 18.6118 8.0898 18.0895L10.0033 16.1758L11.9087 18.0895C12.4342 18.6118 13.3289 18.2398 13.3292 17.4988V12.2768C14.8391 11.2212 15.8334 9.47239 15.8334 7.49738C15.8334 4.28618 13.2142 1.66675 10.0033 1.66675ZM10.0033 3.33473C12.3137 3.33473 14.1656 5.18675 14.1656 7.49738C14.1656 9.80802 12.3137 11.6682 10.0033 11.6682C7.69292 11.6682 5.83295 9.80802 5.83295 7.49738C5.83295 5.18675 7.69292 3.33473 10.0033 3.33473ZM10.0033 4.16466C8.17276 4.16466 6.66931 5.66663 6.66931 7.49738C6.66931 9.32812 8.17276 10.8317 10.0033 10.8317C11.8339 10.8317 13.3292 9.32812 13.3292 7.49738C13.3292 5.66663 11.8339 4.16466 10.0033 4.16466ZM10.0033 5.83102C10.9334 5.83102 11.6695 6.5672 11.6695 7.49738C11.6695 8.42755 10.9334 9.16375 10.0033 9.16375C9.07325 9.16375 8.3355 8.42755 8.3355 7.49738C8.3355 6.5672 9.07325 5.83102 10.0033 5.83102ZM8.3355 13.0823C9.42753 13.4115 10.5469 13.4201 11.6695 13.0823V15.4939L10.5875 14.4102C10.2625 14.0871 9.73765 14.0871 9.41268 14.4102L8.3355 15.4875V13.0823Z" fill="#FFFDFA"/>
</svg>
