<svg width="25" height="25" viewBox="0 0 25 25" fill="none" xmlns="http://www.w3.org/2000/svg">
<path d="M6.64373 13.1531L11.7062 23.15H4.99841C4.22966 23.1219 3.58904 22.8516 3.07654 22.3375C2.56404 21.8234 2.29373 21.1844 2.26404 20.4156V15.8875C2.29216 15.1188 2.56248 14.4781 3.07654 13.9656C3.5906 13.4531 4.22966 13.1828 4.99841 13.1531H6.64373ZM8.81091 3.02656C9.75779 2.07188 10.95 1.57344 12.389 1.53125C13.8281 1.57344 15.0203 2.07188 15.9672 3.02656C16.914 3.98125 17.4093 5.17031 17.4515 6.59375C17.4375 7.52031 17.2093 8.36719 16.7672 9.13594C16.325 9.90469 15.7062 10.5172 14.9093 10.9734C14.1109 11.4297 13.2719 11.6578 12.389 11.6578C11.5062 11.6578 10.6656 11.4297 9.86873 10.9734C9.07029 10.5172 8.45154 9.90469 8.01091 9.13594C7.56873 8.36719 7.3406 7.52031 7.32654 6.59375C7.36873 5.17031 7.86404 3.98125 8.81091 3.02656ZM14.7187 16.0375L12.3906 20.9516L10.0625 16.0375L12.3906 13.9875L14.7187 16.0375ZM21.725 13.9641C22.2515 14.4766 22.5578 15.1172 22.6437 15.8859V20.4141C22.6297 21.1828 22.3625 21.8234 21.8422 22.3359C21.3218 22.8484 20.6781 23.1187 19.9093 23.1484H13.2015L18.1359 13.1516H19.7812C20.55 13.1813 21.1984 13.4516 21.725 13.9641Z" fill="#FEE715"/>
</svg>
