<svg width="25" height="25" viewBox="0 0 25 25" fill="none" xmlns="http://www.w3.org/2000/svg">
<path d="M11.5656 10.8728C11.247 11.0567 10.9901 11.3311 10.8273 11.6611C10.6646 11.9911 10.6034 12.3619 10.6514 12.7267C10.6994 13.0915 10.8545 13.4339 11.0971 13.7105C11.3398 13.9871 11.6589 14.1856 12.0144 14.2808C12.3698 14.3761 12.7454 14.3638 13.0939 14.2455C13.4423 14.1272 13.7478 13.9082 13.9718 13.6163C14.1957 13.3244 14.3281 12.9726 14.3522 12.6055C14.3762 12.2383 14.2909 11.8723 14.1069 11.5536C13.8601 11.1264 13.4538 10.8146 12.9773 10.6869C12.5007 10.5593 11.9929 10.6261 11.5656 10.8728ZM19.9039 12.8912C19.7817 12.7516 19.6529 12.6116 19.5173 12.4713C19.612 12.3717 19.7036 12.2723 19.7923 12.1729C21.465 10.2934 22.171 8.4086 21.5168 7.27544C20.8896 6.18898 19.0237 5.86521 16.6877 6.31941C16.4576 6.36442 16.2288 6.4152 16.0013 6.47174C15.9577 6.32158 15.9114 6.17227 15.8623 6.02382C15.0698 3.63577 13.7897 2.08243 12.4813 2.08325C11.2267 2.08383 10.0142 3.53855 9.24065 5.78898C9.16454 6.01099 9.09414 6.23485 9.02944 6.46055C8.8773 6.42323 8.72452 6.38875 8.57111 6.35712C6.10652 5.8511 4.12145 6.18437 3.46856 7.31816C2.84252 8.40541 3.49724 10.1826 5.06076 11.9766C5.21583 12.1541 5.37528 12.3276 5.53912 12.4972C5.34597 12.6961 5.16308 12.895 4.99261 13.0927C3.46698 14.8615 2.8497 16.6096 3.47473 17.6921C4.12024 18.8103 6.07738 19.1758 8.45952 18.7071C8.65258 18.6688 8.84456 18.6257 9.03548 18.5779C9.10542 18.822 9.18214 19.0641 9.26564 19.3039C10.0358 21.5092 11.2415 22.9171 12.4917 22.9166C13.7828 22.9159 15.077 21.4032 15.8612 19.1054C15.9231 18.9239 15.9818 18.7353 16.0373 18.5411C16.2839 18.6025 16.5322 18.6569 16.7819 18.7045C19.0771 19.1387 20.8991 18.7972 21.523 17.7138C22.1673 16.5948 21.5031 14.718 19.9039 12.8912ZM4.2398 7.76225C4.64174 7.06434 6.26401 6.79205 8.39197 7.22892C8.52797 7.25688 8.6663 7.28813 8.80695 7.32267C8.5992 8.2417 8.4526 9.17349 8.36814 10.1119C7.60032 10.6521 6.86828 11.2414 6.17659 11.8761C6.02419 11.7185 5.87586 11.557 5.73161 11.3918C4.39195 9.85462 3.86252 8.41743 4.2398 7.76225ZM8.28841 13.729C7.75658 13.3263 7.26231 12.9138 6.81371 12.4988C7.262 12.0864 7.75658 11.6753 8.28733 11.2736C8.26826 11.6828 8.2588 12.0922 8.25897 12.502C8.25926 12.9111 8.26907 13.3202 8.28841 13.729ZM8.28777 17.8338C7.38492 18.0346 6.45283 18.0675 5.53808 17.9308C5.28731 17.9113 5.04321 17.8406 4.82087 17.723C4.59852 17.6054 4.40266 17.4435 4.24537 17.2472C3.86613 16.5902 4.36178 15.1868 5.66653 13.674C5.83057 13.4844 5.99998 13.2998 6.17477 13.1201C6.86657 13.7582 7.59981 14.3498 8.36969 14.891C8.45531 15.8414 8.60363 16.7852 8.81366 17.716C8.63937 17.7596 8.46407 17.7989 8.28777 17.8338ZM15.6848 9.45948C15.3354 9.23934 14.9817 9.02627 14.6237 8.82026C14.2714 8.61749 13.9149 8.42232 13.5541 8.23477C14.1719 7.97505 14.7791 7.75323 15.3652 7.57247C15.5034 8.1957 15.6101 8.8255 15.6848 9.45948ZM10.0823 6.07826C10.7451 4.14999 11.7257 2.97354 12.4818 2.97322C13.2871 2.97284 14.3334 4.24224 15.0176 6.30409C15.062 6.4385 15.104 6.57366 15.1436 6.70959C14.2448 6.98837 13.3654 7.32633 12.5112 7.72125C11.6605 7.32168 10.7839 6.97996 9.8872 6.6984C9.94714 6.49012 10.0122 6.28341 10.0823 6.07826ZM9.66526 7.56138C10.2767 7.75387 10.878 7.97707 11.467 8.23013C10.7373 8.60672 10.0264 9.01693 9.33434 9.46075C9.41794 8.79617 9.52919 8.15943 9.66526 7.56138ZM9.33586 15.5413C9.68096 15.7622 10.0311 15.9749 10.3863 16.1795C10.7486 16.3881 11.1158 16.588 11.4877 16.7791C10.8943 17.0409 10.2878 17.272 9.6706 17.4717C9.53295 16.8653 9.42048 16.2174 9.33586 15.5413ZM15.0189 18.8178C14.7417 19.7002 14.3046 20.5241 13.7292 21.2483C13.587 21.4557 13.4037 21.6319 13.1908 21.7657C12.9779 21.8995 12.7398 21.9883 12.4912 22.0265C11.7326 22.0269 10.7645 20.8963 10.1059 19.0104C10.0283 18.7874 9.95695 18.5624 9.89179 18.3354C10.7927 18.0447 11.6729 17.6933 12.5264 17.2836C13.3876 17.6811 14.274 18.0216 15.1799 18.3029C15.1304 18.4758 15.0767 18.6474 15.0189 18.8178ZM15.3962 17.4384C14.8033 17.2551 14.1873 17.0296 13.5606 16.766C13.9139 16.5801 14.2697 16.3838 14.6281 16.177C14.9958 15.9647 15.3542 15.747 15.7032 15.524C15.6336 16.167 15.5312 16.806 15.3962 17.4384ZM15.8611 12.4981C15.8619 13.1307 15.8421 13.7628 15.8018 14.3944C15.2886 14.7418 14.7468 15.0809 14.1831 15.4063C13.6217 15.7305 13.0655 16.0283 12.5198 16.2979C11.9456 16.0227 11.3825 15.7262 10.8305 15.4083C10.2815 15.0923 9.7452 14.7559 9.22144 14.3989C9.17356 13.7675 9.14945 13.135 9.14909 12.5013C9.14865 11.8681 9.17236 11.2357 9.21998 10.6038C9.73305 10.2534 10.2709 9.91451 10.827 9.59344C11.3857 9.27085 11.9489 8.97425 12.509 8.70544C13.0761 8.98105 13.633 9.27641 14.1797 9.59153C14.7282 9.90681 15.2661 10.2397 15.7932 10.5902C15.8385 11.2252 15.8611 11.8612 15.8611 12.4981ZM16.8577 7.19311C18.8591 6.80381 20.3681 7.06569 20.7461 7.72042C21.1488 8.41794 20.5717 9.95844 19.1276 11.5812C19.0478 11.6707 18.9649 11.7607 18.8791 11.851C18.1755 11.2149 17.4293 10.6275 16.6459 10.0928C16.5668 9.16462 16.4257 8.24279 16.2235 7.33348C16.439 7.28046 16.6504 7.23367 16.8577 7.19311ZM16.7224 11.2397C17.2509 11.6255 17.759 12.0385 18.2446 12.477C17.7611 12.9227 17.2546 13.3428 16.7272 13.7357C16.7434 13.3232 16.7513 12.9106 16.7511 12.4977C16.7509 12.0783 16.7413 11.6589 16.7224 11.2397ZM20.7517 17.2696C20.3731 17.9271 18.9101 18.2012 16.9473 17.8299C16.7223 17.7874 16.4915 17.7369 16.2548 17.6782C16.4521 16.7572 16.587 15.8239 16.6584 14.8847C17.4406 14.3407 18.1844 13.7435 18.8846 13.0974C19.0071 13.2247 19.1236 13.3513 19.2342 13.4774C19.8603 14.1582 20.3557 14.9484 20.6957 15.8085C20.8044 16.0353 20.8655 16.282 20.8751 16.5333C20.8847 16.7846 20.8427 17.0352 20.7517 17.2696Z" fill="#FEE715"/>
</svg>
