<svg viewBox="0 0 20 20" fill="none" xmlns="http://www.w3.org/2000/svg">
<g clip-path="url(#clip0_549_3875)">
<mask id="mask0_549_3875" style="mask-type:luminance" maskUnits="userSpaceOnUse" x="0" y="0" >
<path d="M20 0H0V20H20V0Z" fill="white"/>
</mask>
<g mask="url(#mask0_549_3875)">
<path d="M11.8715 9.38558L12.9444 8.31532L11.8501 7.22191L10.7798 8.29472C10.331 7.98918 9.81858 7.77719 9.26755 7.66989V6.15332H7.72442V7.67072C7.17168 7.77715 6.66188 7.98826 6.21474 8.29468L5.14194 7.22188L4.05024 8.31529L5.11962 9.38555C4.81838 9.83443 4.6064 10.3434 4.49908 10.8978H2.97998V12.4401H4.49908C4.60635 12.9911 4.81751 13.5009 5.11962 13.9498L4.05024 15.0226L5.14107 16.1144L6.21387 15.0432C6.66101 15.3471 7.17168 15.5591 7.72442 15.6662V17.1845H9.26844V15.6662C9.81942 15.5608 10.3301 15.3495 10.7807 15.0449L11.851 16.1144L12.9452 15.0226L11.8724 13.9498C12.1763 13.5026 12.3891 12.9911 12.4921 12.4401H14.0129V10.8978H12.4912C12.3873 10.3434 12.1762 9.83448 11.8715 9.38558ZM8.49515 13.355C7.56567 13.355 6.81124 12.5972 6.81124 11.666C6.81124 10.7373 7.56567 9.98125 8.49515 9.98125C9.42722 9.98125 10.1825 10.7374 10.1825 11.666C10.1833 12.5972 9.42807 13.355 8.49515 13.355Z" fill="#FFFDFA"/>
<path d="M13.3717 4.19233C12.0182 3.32635 10.4175 2.81567 8.69333 2.81567C3.89219 2.81572 0 6.70706 0 11.5082C0 13.5147 0.686622 15.354 1.82639 16.8267L2.91809 15.7359C2.04951 14.5507 1.52086 13.1011 1.52086 11.515C1.52086 7.55419 4.73159 4.34516 8.69244 4.34516C10.0099 4.34516 11.2252 4.72537 12.2868 5.35192L11.4492 6.24452L14.8539 6.55347L14.4883 2.99857L13.3717 4.19233Z" fill="#FFFDFA"/>
<path d="M20.0002 11.691L17.8673 9.55908V10.7529H15.0601V12.629H17.8673V13.8255L20.0002 11.691Z" fill="#FFFDFA"/>
</g>
</g>
<defs>
<clipPath id="clip0_549_3875">
<rect fill="white"/>
</clipPath>
</defs>
</svg>
