<svg width="25" height="21" viewBox="0 0 25 21" fill="none" xmlns="http://www.w3.org/2000/svg">
<g clip-path="url(#clip0_120_4171)">
<path fill-rule="evenodd" clip-rule="evenodd" d="M12.4247 2.1321C13.4196 1.09654 14.1154 0.19932 15.6474 0.0243521C18.5221 -0.305238 21.169 2.63869 19.7164 5.53786C19.3034 6.36387 18.4611 7.3445 17.5293 8.30886C16.508 9.3668 15.3768 10.4024 14.5854 11.1877L12.4247 13.3321L10.6405 11.6149C8.49203 9.54584 4.99064 6.94167 4.87671 3.71698C4.79533 1.45868 6.57756 0.0101106 8.62834 0.0365591C10.4614 0.0609732 11.2305 0.972432 12.4247 2.1321ZM0.830078 12.5223H1.97957C2.01009 12.5223 2.03857 12.5244 2.06909 12.5264V11.7024C2.06909 11.6902 2.07113 11.678 2.07113 11.6658C2.0813 11.4522 2.17082 11.2589 2.31323 11.1165C2.46175 10.9659 2.66927 10.8744 2.89917 10.8744H4.04867C4.07918 10.8744 4.10767 10.8764 4.13818 10.8784V10.0545C4.13818 9.8266 4.23177 9.61908 4.38232 9.46853C4.53084 9.32001 4.73836 9.22642 4.96623 9.22642H6.11572C6.34359 9.22642 6.55111 9.32001 6.70166 9.47056C6.85221 9.62111 6.9458 9.8266 6.9458 10.0565V20.1375C6.9458 20.3653 6.85221 20.5729 6.70166 20.7234C6.55111 20.874 6.34562 20.9675 6.11572 20.9675H4.96623C4.95402 20.9675 4.94181 20.9655 4.92961 20.9655C4.71598 20.9553 4.52271 20.8658 4.38029 20.7234C4.23177 20.5729 4.13818 20.3674 4.13818 20.1395V19.4417C4.1097 19.4457 4.07918 19.4478 4.04867 19.4478H2.89917C2.88696 19.4478 2.87476 19.4457 2.86255 19.4457C2.65096 19.4356 2.45768 19.346 2.31527 19.2036C2.16471 19.0531 2.07113 18.8476 2.07316 18.6197V17.6676C2.04468 17.6716 2.01416 17.6737 1.98364 17.6717H0.832113C0.604248 17.6717 0.396729 17.5781 0.246175 17.4275C0.0976563 17.279 0.00203451 17.0715 0.00203451 16.8416L0 13.3524C0 13.1245 0.0935872 12.915 0.242106 12.7665C0.39266 12.6159 0.600179 12.5244 0.830078 12.5223ZM20.0378 9.96494H18.8883H18.8782C18.8578 9.96901 18.8395 9.97715 18.8253 9.99139C18.809 10.0077 18.7988 10.03 18.7988 10.0545V20.1354C18.7988 20.1599 18.809 20.1822 18.8253 20.1985C18.8416 20.2148 18.8639 20.225 18.8883 20.225H20.0378H20.048C20.0663 20.2229 20.0867 20.2127 20.1009 20.1985C20.1172 20.1822 20.1294 20.1599 20.1294 20.1375C20.1294 16.7765 20.1274 13.4175 20.1274 10.0565C20.1274 10.0321 20.1172 10.0097 20.1009 9.99343C20.0826 9.97308 20.0623 9.96494 20.0378 9.96494ZM16.5446 14.2842V16.0705L8.57341 16.0685V14.2822L16.5446 14.2842ZM24.1699 13.2629H23.0204C22.994 13.2629 22.9716 13.2731 22.9574 13.2893C22.9431 13.3036 22.935 13.3198 22.9309 13.3402V13.3524V16.8375V16.8477C22.9329 16.866 22.9431 16.8843 22.9574 16.8985C22.9736 16.9148 22.998 16.925 23.0204 16.925H24.1699C24.1964 16.925 24.2188 16.9148 24.233 16.8985C24.2493 16.8823 24.2594 16.8599 24.2594 16.8355L24.2574 13.3524C24.2574 13.328 24.2472 13.3056 24.231 13.2893C24.2147 13.2731 24.1943 13.2629 24.1699 13.2629ZM23.0225 12.5223H24.1699C24.3998 12.5223 24.6053 12.6159 24.7559 12.7665C24.9064 12.917 25 13.1225 25 13.3524V16.8375C25 17.0633 24.9064 17.2729 24.7559 17.4194C24.6053 17.5699 24.3978 17.6635 24.172 17.6635H23.0225C22.9919 17.6635 22.9635 17.6615 22.9329 17.6594V18.6116C22.9329 18.8395 22.8394 19.047 22.6888 19.1975C22.5382 19.3481 22.3307 19.4396 22.1029 19.4417H20.9534C20.9229 19.4417 20.8944 19.4396 20.8639 19.4356V20.1334C20.8639 20.3613 20.7703 20.5688 20.6217 20.7173C20.4793 20.8597 20.2861 20.9492 20.0724 20.9594C20.0602 20.9594 20.048 20.9614 20.0358 20.9614H18.8863C18.6584 20.9614 18.4509 20.8679 18.3004 20.7173C18.1498 20.5668 18.0583 20.3592 18.0562 20.1314L18.0522 10.0545C18.0522 9.8266 18.1458 9.61704 18.2943 9.46853C18.4367 9.32611 18.63 9.23659 18.8436 9.22642C18.8558 9.22438 18.868 9.22438 18.8802 9.22438H20.0297C20.2576 9.22438 20.4631 9.31797 20.6136 9.46649C20.7642 9.61704 20.8557 9.82456 20.8577 10.0524V10.8764C20.8862 10.8723 20.9167 10.8703 20.9473 10.8723H22.0968C22.3246 10.8723 22.5321 10.9659 22.6827 11.1144C22.8333 11.265 22.9248 11.4725 22.9248 11.7004V12.5244C22.9635 12.5244 22.9919 12.5223 23.0225 12.5223ZM22.1029 11.6129H20.9554C20.931 11.6129 20.9106 11.6231 20.8923 11.6393C20.8761 11.6556 20.8659 11.676 20.8659 11.7004V11.7024V18.6116C20.8659 18.636 20.8761 18.6584 20.8923 18.6747C20.9086 18.6909 20.931 18.7031 20.9534 18.7031H22.1029C22.1273 18.7031 22.1476 18.693 22.1659 18.6767C22.1822 18.6604 22.1924 18.638 22.1924 18.6136C22.1924 16.3106 22.1924 14.0055 22.1944 11.7024C22.1944 11.678 22.1842 11.6556 22.168 11.6393C22.1497 11.6231 22.1273 11.6129 22.1029 11.6129ZM4.87264 20.1314C4.87264 20.1558 4.88485 20.1782 4.90112 20.1924C4.91536 20.2066 4.93368 20.2168 4.95402 20.2189H4.96419H6.11369C6.1381 20.2189 6.16048 20.2087 6.17676 20.1924C6.19303 20.1761 6.20321 20.1537 6.20321 20.1293L6.20117 10.0524C6.20117 10.028 6.191 10.0056 6.17472 9.98936C6.15845 9.97308 6.13607 9.96291 6.11165 9.96291H4.96216C4.93774 9.96291 4.91536 9.97512 4.90112 9.99139C4.88485 10.0077 4.87467 10.03 4.87467 10.0545C4.87264 13.4134 4.87264 16.7724 4.87264 20.1314ZM4.13208 18.6238V18.6136V11.7024V11.6902C4.12801 11.6699 4.11987 11.6536 4.10563 11.6393C4.08936 11.6231 4.06698 11.6129 4.04256 11.6129H2.89307C2.86865 11.6129 2.84627 11.6251 2.83 11.6414C2.81576 11.6556 2.80762 11.6739 2.80355 11.6943V11.7044C2.80355 14.0075 2.80355 16.3106 2.80355 18.6136C2.80355 18.6401 2.81372 18.6604 2.83 18.6767C2.84424 18.6909 2.86255 18.7011 2.88289 18.7031H2.89307H4.04256C4.06698 18.7031 4.08936 18.6909 4.1036 18.6747C4.11987 18.6604 4.13005 18.6421 4.13208 18.6238ZM1.97754 13.2629H0.828044C0.80363 13.2629 0.78125 13.2731 0.764974 13.2893C0.748698 13.3056 0.738525 13.328 0.738525 13.3524V16.8375C0.738525 16.8619 0.748698 16.8843 0.764974 16.9006C0.78125 16.9168 0.80363 16.927 0.828044 16.927H1.97754C2.00195 16.927 2.02433 16.9168 2.04061 16.9006C2.05688 16.8843 2.06706 16.8619 2.06706 16.8375L2.06502 13.3524V13.3504C2.06502 13.3259 2.05485 13.3056 2.03857 13.2893C2.0223 13.271 1.99992 13.2629 1.97754 13.2629ZM9.75342 6.37404C9.61507 6.2418 9.54386 6.0648 9.53979 5.88576C9.53573 5.70876 9.60083 5.52769 9.73307 5.39138C9.86532 5.25303 10.0423 5.18182 10.2193 5.17775C10.3963 5.17369 10.5774 5.23879 10.7137 5.37103L11.7716 6.38422L14.2883 4.0486C14.2944 4.04047 14.3026 4.03233 14.3127 4.02622C14.4552 3.90415 14.6322 3.84922 14.8051 3.85736L14.8132 3.85939C14.9882 3.86957 15.1591 3.94891 15.2852 4.08929C15.4134 4.23171 15.4724 4.41278 15.4622 4.58978L15.4602 4.59792C15.45 4.76882 15.3727 4.93768 15.2384 5.06179L12.2457 7.84906C12.2416 7.85516 12.2355 7.86127 12.2294 7.86737C12.0951 7.98537 11.9263 8.04234 11.7594 8.0403C11.5906 8.03827 11.4217 7.97316 11.2895 7.84702L9.75342 6.37404Z" fill="#FEE715"/>
</g>
<defs>
<clipPath id="clip0_120_4171">
<rect width="25" height="20.9656" fill="white"/>
</clipPath>
</defs>
</svg>
