<svg width="25" height="26" viewBox="0 0 25 26" fill="none" xmlns="http://www.w3.org/2000/svg">
<g clip-path="url(#clip0_120_3992)">
<path d="M12.5 25.0808C19.4036 25.0808 25 19.4844 25 12.5808C25 5.67725 19.4036 0.0808105 12.5 0.0808105C5.59644 0.0808105 0 5.67725 0 12.5808C0 19.4844 5.59644 25.0808 12.5 25.0808Z" fill="#FEE715"/>
<path d="M17.9401 4.69962C16.6719 4.74386 15.5651 5.44278 14.7411 6.40958C13.8288 7.46964 13.2219 8.72696 12.7846 10.0104C12.0024 9.36925 11.3989 8.53927 10.1439 8.17735C9.17386 7.89884 8.15501 8.01388 7.2181 8.71192C6.77425 9.04347 6.46849 9.54464 6.32308 10.0157C5.94661 11.24 6.71888 12.3296 7.06966 12.7208L7.83655 13.5427C7.99466 13.7038 8.37542 14.1242 8.18929 14.727C7.98812 15.3822 7.19808 15.8066 6.38773 15.5566C6.02581 15.4462 5.50589 15.1766 5.6223 14.7969C5.67044 14.6416 5.78157 14.5254 5.84114 14.3911C5.89583 14.2758 5.92191 14.1893 5.93851 14.1385C6.08655 13.6551 5.88431 13.0262 5.36653 12.8665C4.88353 12.7185 4.38929 12.8358 4.19769 13.4577C3.9804 14.1643 4.31849 15.4466 6.12962 16.005C8.25159 16.6569 10.0466 15.5016 10.3012 13.9946C10.4616 13.0508 10.0354 12.3496 9.25462 11.4478L8.61849 10.7442C8.23314 10.3593 8.10081 9.70314 8.49964 9.19884C8.83616 8.77345 9.31546 8.59191 10.1004 8.80538C11.2462 9.11651 11.757 9.91153 12.6092 10.5527C12.2574 11.7069 12.0274 12.8654 11.8192 13.9043L11.6923 14.6788C11.0831 17.8742 10.6181 19.6288 9.4096 20.6361C9.16614 20.8093 8.8181 21.0685 8.29349 21.0865C8.01849 21.095 7.92962 20.9059 7.92581 20.8234C7.91927 20.6304 8.08196 20.5419 8.19007 20.455C8.35159 20.3669 8.59583 20.2208 8.57923 19.7527C8.56165 19.1996 8.10345 18.72 7.44114 18.742C6.94505 18.7589 6.1889 19.2258 6.21732 20.0804C6.24691 20.9631 7.06966 21.6246 8.31009 21.5827C8.97318 21.56 10.4538 21.29 11.9131 19.5554C13.6116 17.5669 14.0866 15.2873 14.4439 13.6189L14.8427 11.4161C15.0643 11.4427 15.3012 11.4604 15.5589 11.4665C17.6742 11.5111 18.7324 10.4154 18.7481 9.61847C18.7585 9.13614 18.4316 8.66153 17.9739 8.67228C17.6462 8.68155 17.2346 8.89962 17.1358 9.35275C17.0393 9.79728 17.8089 10.1984 17.2074 10.5881C16.78 10.8647 16.0139 11.0596 14.935 10.9012L15.1312 9.81691C15.5316 7.76075 16.0254 5.23155 17.8989 5.17003C18.0354 5.1631 18.535 5.17618 18.5466 5.50655C18.55 5.61691 18.5227 5.64503 18.3935 5.89767C18.2619 6.09464 18.2123 6.26232 18.2185 6.45499C18.2366 6.97999 18.6358 7.32501 19.2131 7.30421C19.9862 7.27921 20.2085 6.52657 20.1958 6.14005C20.1646 5.23185 19.2075 4.65812 17.9401 4.69962Z" fill="#101820"/>
</g>
<defs>
<clipPath id="clip0_120_3992">
<rect width="25" height="25.1004" fill="white"/>
</clipPath>
</defs>
</svg>
