<svg width="16" height="16" viewBox="0 0 16 16" fill="none" xmlns="http://www.w3.org/2000/svg">
<g clip-path="url(#clip0_120_4072)">
<path fill-rule="evenodd" clip-rule="evenodd" d="M8.66663 6H9.99996V1.33333C9.99996 0.597333 9.40263 0 8.66663 0H1.99996C1.26396 0 0.666626 0.597333 0.666626 1.33333V14.6667C0.666626 15.4027 1.26396 16 1.99996 16H8.66663C9.40263 16 9.99996 15.4027 9.99996 14.6667V10H8.66663V12.6667H1.99996V3.31733H8.66663V6ZM5.33329 14.6667C5.70196 14.6667 5.99996 14.368 5.99996 14C5.99996 13.632 5.70196 13.3333 5.33329 13.3333C4.96529 13.3333 4.66729 13.632 4.66729 14C4.66729 14.368 4.96529 14.6667 5.33329 14.6667ZM12 7.33333V5.33333L15.3333 8L12 10.6667V8.66667H5.99996V7.33333H12ZM4.33329 1.33333H6.33329C6.51729 1.33333 6.66663 1.48267 6.66663 1.66667C6.66663 1.85067 6.51729 2 6.33329 2H4.33329C4.14929 2 3.99996 1.85067 3.99996 1.66667C3.99996 1.48267 4.14929 1.33333 4.33329 1.33333Z" fill="#FFFDFA"/>
</g>
<defs>
<clipPath id="clip0_120_4072">
<rect width="16" height="16" fill="white"/>
</clipPath>
</defs>
</svg>
