<svg width="25" height="25" viewBox="0 0 25 25" fill="none" xmlns="http://www.w3.org/2000/svg">
<path fill-rule="evenodd" clip-rule="evenodd" d="M7.80004 25C7.52296 25 7.29171 24.775 7.29171 24.4927V23.9583C6.14171 23.9583 5.20837 23.025 5.20837 21.875V8.33333C5.20837 7.18333 6.14171 6.25 7.29171 6.25H9.37504V1.04167C9.37504 0.466667 9.84171 0 10.4167 0H14.5834C15.1594 0 15.625 0.467708 15.625 1.04167V6.25H17.7084C18.8594 6.25 19.7917 7.18333 19.7917 8.33333V21.875C19.7917 23.025 18.8594 23.9583 17.7084 23.9583V24.4667C17.7084 24.7615 17.4709 25 17.175 25H17.174C16.898 25 16.6667 24.7771 16.6667 24.4927V23.9583H8.33337V24.4667C8.33337 24.7615 8.09483 25 7.80004 25ZM7.29171 21.875H17.7084V8.33333H7.29171V21.875ZM9.38337 11.4583H8.85421C8.56671 11.4583 8.33337 11.225 8.33337 10.9375C8.33337 10.65 8.56671 10.4167 8.85421 10.4167H16.1459C16.4344 10.4167 16.6667 10.65 16.6667 10.9375C16.6667 11.225 16.4344 11.4583 16.1459 11.4583H11.425C11.698 11.775 11.9073 12.151 12.0271 12.5031L13.3698 12.5062L17.0448 16.1958L14.0938 19.1365L10.4177 15.4458L10.4209 13.9083C9.78858 13.476 9.30837 12.5396 9.38337 11.4583ZM13.1771 14.8656L15.074 16.7625L14.7052 17.1302L12.8094 15.2344L13.1771 14.8656ZM13.8896 16.6833L13.5209 17.051L12.2563 15.7865L12.625 15.4187L13.8896 16.6833ZM13.7292 14.3135L15.6261 16.2104L15.2584 16.5781L13.3615 14.6823L13.7292 14.3135ZM12.0917 13.5573C11.9959 13.8427 11.7448 14.0385 11.4605 14.1187C11.5042 14.5531 12.0344 14.7437 12.3459 14.4344C12.6386 14.1448 12.4907 13.6479 12.0917 13.5573ZM9.90733 11.4583C9.85212 12.174 10.0698 12.799 10.4219 13.2104L10.424 12.5L11.4688 12.5021C11.2719 12.05 10.9834 11.6958 10.673 11.4583H9.90733ZM14.5834 6.25V2.60417C14.5834 2.31667 14.3511 2.08333 14.0625 2.08333H10.9375C10.65 2.08333 10.4167 2.31667 10.4167 2.60417V6.25H14.5834Z" fill="#FEE715"/>
</svg>
