<svg viewBox="0 0 16 16" fill="none" xmlns="http://www.w3.org/2000/svg">
<g clip-path="url(#clip0_120_4070)">
<path d="M8.02067 4.11467C5.9 4.11467 4.176 5.83867 4.17533 7.95867C4.17467 8.824 4.42867 9.472 4.85467 10.15L4.46667 11.5687L5.92133 11.1867C6.57333 11.5733 7.19533 11.8053 8.018 11.806C10.1367 11.806 11.8627 10.0813 11.8633 7.962C11.864 5.83733 10.1467 4.11533 8.02067 4.11467ZM10.282 9.61067C10.186 9.88067 9.724 10.1267 9.502 10.16C9.30267 10.19 9.05067 10.202 8.774 10.114C8.606 10.0607 8.39067 9.98933 8.11533 9.87067C6.956 9.37 6.19933 8.20267 6.14133 8.126C6.08333 8.04867 5.66933 7.49933 5.66933 6.93067C5.66933 6.362 5.968 6.082 6.074 5.96667C6.18 5.85133 6.30467 5.822 6.382 5.822L6.60333 5.826C6.674 5.82933 6.76933 5.79933 6.86333 6.02467C6.95933 6.256 7.19067 6.82467 7.21933 6.88267C7.248 6.94067 7.26733 7.008 7.22867 7.08533C7.19 7.16267 7.17067 7.21067 7.11333 7.278L6.94 7.48067C6.882 7.538 6.822 7.60067 6.88933 7.71667C6.95667 7.83267 7.18867 8.21067 7.532 8.51733C7.97333 8.91133 8.346 9.03333 8.46133 9.09067C8.57667 9.148 8.644 9.13867 8.712 9.062C8.77933 8.98467 9.00067 8.72467 9.078 8.60867C9.15533 8.49333 9.232 8.512 9.338 8.55067C9.444 8.58933 10.012 8.86867 10.1273 8.92667C10.2427 8.98467 10.32 9.01333 10.3487 9.06133C10.3787 9.10933 10.3787 9.34067 10.282 9.61067ZM8 0C3.582 0 0 3.582 0 8C0 12.418 3.582 16 8 16C12.418 16 16 12.418 16 8C16 3.582 12.418 0 8 0ZM8.01933 12.5867C7.24533 12.5867 6.48267 12.392 5.80733 12.024L3.356 12.6667L4.012 10.27C3.60733 9.56867 3.394 8.77267 3.39467 7.958C3.39533 5.408 5.47 3.33333 8.01933 3.33333C9.25667 3.334 10.418 3.81533 11.2907 4.68933C12.164 5.56333 12.6447 6.72533 12.644 7.96133C12.6433 10.5113 10.5687 12.5867 8.01933 12.5867Z" fill="#FFFDFA"/>
</g>
<defs>
<clipPath id="clip0_120_4070">
<rect width="16" height="16" fill="white"/>
</clipPath>
</defs>
</svg>
