<svg width="25" height="25" viewBox="0 0 25 25" fill="none" xmlns="http://www.w3.org/2000/svg">
<path d="M3.81957 12.4998C3.819 15.8261 5.71923 18.8603 8.71205 20.312L4.57106 8.96718C4.07464 10.0787 3.81861 11.2825 3.81957 12.4998ZM12.6526 13.2591L10.0477 20.827C11.7965 21.342 13.6631 21.2936 15.3828 20.6885C15.3586 20.6505 15.3379 20.6105 15.3206 20.5689L12.6526 13.2591ZM18.3602 12.062C18.3485 11.2131 18.1008 10.3842 17.6445 9.66813C17.178 9.08111 16.8829 8.37648 16.7918 7.63216C16.7708 6.80494 17.4224 6.11627 18.2496 6.0916C18.2881 6.0916 18.3246 6.09625 18.362 6.09859C14.8276 2.86106 9.33792 3.10177 6.10044 6.63609C5.78719 6.97801 5.50192 7.34448 5.24728 7.73199C5.45099 7.73847 5.643 7.74254 5.80588 7.74254C6.71366 7.74254 8.1195 7.6321 8.1195 7.6321C8.31735 7.62066 8.48704 7.77179 8.49849 7.96964C8.50961 8.16203 8.36675 8.32886 8.17494 8.34749C8.17494 8.34749 7.70446 8.40255 7.18159 8.42994L10.3424 17.8325L12.2424 12.1354L10.89 8.43001C10.4223 8.4026 9.97954 8.34755 9.97954 8.34755C9.78232 8.32848 9.63787 8.15312 9.65688 7.9559C9.67545 7.76396 9.84234 7.62104 10.0348 7.63216C10.0348 7.63216 11.468 7.7426 12.3208 7.7426C13.2286 7.7426 14.6347 7.63216 14.6347 7.63216C14.8325 7.62059 15.0023 7.77159 15.0139 7.96938C15.0251 8.16203 14.8821 8.32911 14.69 8.34755C14.69 8.34755 14.2191 8.40261 13.6966 8.43001L16.8336 17.761L17.729 14.9234C18.0787 14.0058 18.2914 13.0417 18.3602 12.062ZM20.1758 9.22805C20.1608 10.2976 19.9365 11.3539 19.5155 12.3372L16.8643 20.0027C20.9306 17.6373 22.3731 12.4637 20.1174 8.33554C20.1569 8.63136 20.1764 8.92955 20.1758 9.22805ZM12.5 2.0835C6.74709 2.0835 2.08337 6.74722 2.08337 12.5002C2.08337 18.2531 6.74709 22.9168 12.5 22.9168C18.253 22.9168 22.9167 18.2531 22.9167 12.5002C22.9167 6.74722 18.253 2.0835 12.5 2.0835ZM16.3112 21.5226C13.2628 22.8126 9.76866 22.473 7.02582 20.6199C5.45137 19.557 4.21891 18.0603 3.47752 16.3113C2.18713 13.2629 2.52689 9.76865 4.38033 7.02594C5.4431 5.45136 6.93974 4.21877 8.68891 3.4777C11.7373 2.18764 15.2314 2.52728 17.9743 4.38033C19.5487 5.4433 20.7812 6.93992 21.5226 8.68896C22.8129 11.7374 22.4732 15.2316 20.6198 17.9743C19.557 19.5489 18.0603 20.7815 16.3112 21.5226Z" fill="#FEE715"/>
</svg>
