<svg viewBox="0 0 80 80" fill="none" xmlns="http://www.w3.org/2000/svg">
<path d="M45 6.66663C27.3733 6.66663 12.8367 19.7133 10.41 36.6666H0L13.3333 56.39L26.6667 36.6666H17.1767C19.5467 23.4266 31.09 13.3333 45 13.3333C60.6233 13.3333 73.3333 26.0433 73.3333 41.6666C73.3333 57.29 60.6233 70 45 70C34.95 70 26.1267 64.7233 21.0967 56.81L17.0967 62.7266C23.4833 71.18 33.59 76.6666 45 76.6666C64.3233 76.6666 80 60.9933 80 41.6666C80 22.34 64.3233 6.66663 45 6.66663Z" fill="#FEE715"/>
<path d="M50.62 39.1397L52.122 37.6413L50.59 36.1105L49.0917 37.6124C48.4633 37.1847 47.7459 36.8879 46.9745 36.7377V34.6145H44.8141V36.7389C44.0403 36.8879 43.3265 37.1834 42.7005 37.6124L41.1986 36.1105L39.6702 37.6412L41.1674 39.1396C40.7456 39.7681 40.4489 40.4806 40.2986 41.2568H38.1719V43.416H40.2986C40.4488 44.1874 40.7444 44.9011 41.1674 45.5295L39.6702 47.0315L41.1974 48.5599L42.6993 47.0603C43.3253 47.4857 44.0403 47.7825 44.8141 47.9326V50.0582H46.9757V47.9326C47.7471 47.7849 48.462 47.4892 49.0929 47.0627L50.5912 48.5599L52.1232 47.0315L50.6213 45.5295C51.0467 44.9036 51.3447 44.1874 51.4888 43.416H53.618V41.2568H51.4876C51.3422 40.4806 51.0466 39.7681 50.62 39.1397ZM45.8931 44.6969C44.5918 44.6969 43.5356 43.6359 43.5356 42.3322C43.5356 41.0321 44.5918 39.9736 45.8931 39.9736C47.198 39.9736 48.2554 41.0322 48.2554 42.3322C48.2566 43.6359 47.1992 44.6969 45.8931 44.6969Z" fill="#FEE715"/>
<path d="M52.7203 31.869C50.8255 30.6566 48.5845 29.9417 46.1707 29.9417C39.4491 29.9417 34 35.3896 34 42.1111C34 44.9204 34.9613 47.4953 36.5569 49.5572L38.0853 48.03C36.8693 46.3707 36.1292 44.3413 36.1292 42.1208C36.1292 36.5756 40.6242 32.0829 46.1694 32.0829C48.0138 32.0829 49.7152 32.6152 51.2015 33.4924L50.0288 34.742L54.7954 35.1746L54.2835 30.1977L52.7203 31.869Z" fill="#FEE715"/>
<path d="M61.9999 42.3671L59.014 39.3824V41.0538H55.0837V43.6804H59.014V45.3554L61.9999 42.3671Z" fill="#FEE715"/>
</svg>
