<?xml version="1.0" standalone="no"?>
<!DOCTYPE svg PUBLIC "-//W3C//DTD SVG 20010904//EN"
 "http://www.w3.org/TR/2001/REC-SVG-20010904/DTD/svg10.dtd">
<svg version="1.0" xmlns="http://www.w3.org/2000/svg"
 width="896.000000pt" height="896.000000pt" viewBox="0 0 896.000000 896.000000"
 preserveAspectRatio="xMidYMid meet">
<metadata>
Created by potrace 1.14, written by Peter Selinger 2001-2017
</metadata>
<g transform="translate(0.000000,896.000000) scale(0.100000,-0.100000)"
fill="#000000" stroke="none">
<path d="M668 6885 c-2 -2 -37 -5 -78 -8 -281 -21 -524 -216 -574 -460 -49
-241 78 -473 329 -600 81 -41 169 -64 275 -72 36 -3 81 -8 100 -11 143 -23
177 -199 50 -261 -51 -25 -154 -22 -202 6 -33 20 -83 95 -73 110 2 4 -108 6
-243 6 l-247 0 3 -55 c9 -148 123 -316 274 -405 59 -35 169 -78 229 -90 59
-12 252 -14 309 -4 134 25 268 92 355 177 67 66 80 82 114 150 40 80 57 154
55 239 -8 308 -287 549 -649 562 -125 4 -195 56 -195 144 0 48 22 86 66 117
28 18 48 23 102 23 96 1 163 -39 180 -108 l8 -30 246 0 246 0 -5 40 c-22 197
-135 352 -329 449 -75 37 -155 62 -233 71 -77 10 -110 12 -113 10z"/>
<path d="M1683 6882 c-6 -1 -8 -1465 -4 -1815 l1 -37 243 2 242 3 1 223 1 223
54 57 c30 31 55 58 56 61 2 2 130 -125 286 -283 l284 -286 349 0 349 0 -460
460 -460 460 465 465 c256 256 458 465 450 466 -8 0 -160 1 -338 1 l-324 1
-166 -166 c-448 -445 -541 -534 -544 -524 -2 7 -3 164 -3 350 1 299 -1 337
-14 338 -42 2 -462 4 -468 1z"/>
<path d="M3802 6875 c-4 -5 -7 -423 -7 -927 l0 -918 242 0 243 0 0 43 c4 312
0 1800 -4 1804 -11 11 -468 9 -474 -2z"/>
<path d="M4717 6882 c-15 -3 -17 -76 -16 -928 l0 -924 577 0 577 0 0 243 0
242 -330 2 -330 1 -3 681 c-1 375 -5 681 -10 682 -23 3 -451 3 -465 1z"/>
<path d="M6236 6874 c-8 -7 -11 -287 -11 -925 l1 -914 577 -3 577 -2 0 244 0
244 -292 1 c-161 0 -312 0 -335 0 l-42 1 1 675 c1 371 -2 678 -5 682 -12 11
-460 9 -471 -3z"/>
<path d="M8268 6885 c-2 -1 -32 -5 -68 -9 -94 -9 -115 -14 -200 -47 -187 -72
-320 -213 -365 -389 -64 -247 63 -493 320 -620 97 -47 177 -68 287 -75 134 -9
191 -39 216 -112 22 -67 -25 -146 -102 -170 -46 -14 -126 -9 -165 11 -36 19
-81 75 -81 102 0 19 -9 20 -242 18 -134 -1 -246 -2 -250 -3 -3 0 -5 -11 -4
-23 17 -143 63 -238 165 -338 137 -136 287 -194 501 -194 135 -1 160 2 260 33
91 28 184 85 256 157 103 102 153 211 159 347 6 151 -43 278 -152 390 -119
122 -276 190 -473 203 -133 9 -170 25 -205 93 -11 23 -15 47 -12 72 10 73 62
113 159 124 90 10 182 -49 192 -124 3 -14 28 -16 247 -16 l244 0 0 35 c2 128
-98 299 -230 396 -89 65 -229 119 -336 129 -35 4 -76 8 -91 9 -15 2 -29 2 -30
1z"/>
<path d="M512 3919 c-16 -6 -17 -71 -14 -928 l2 -921 243 0 242 0 0 241 c0
132 3 243 7 245 4 2 71 5 150 6 l143 1 114 -194 c63 -107 126 -216 142 -244
l28 -50 280 -3 c155 -1 281 -1 281 2 0 5 -370 638 -382 653 -6 7 -1 19 14 35
71 71 134 177 169 278 25 76 34 241 18 330 -14 72 -62 188 -106 253 -103 152
-296 271 -477 294 -67 8 -832 10 -854 2z m859 -420 c45 -15 111 -66 136 -104
73 -111 54 -259 -45 -345 -65 -58 -111 -68 -309 -69 l-168 -1 0 265 0 265 176
0 c105 0 190 -5 210 -11z"/>
<path d="M3237 3924 c-1 -1 -33 -4 -72 -8 -224 -18 -465 -142 -601 -309 -21
-27 -44 -54 -49 -60 -42 -49 -96 -152 -130 -245 -127 -353 -11 -781 277 -1012
37 -30 74 -61 83 -68 26 -23 169 -89 240 -111 96 -30 112 -32 260 -36 142 -3
242 15 372 68 121 49 271 162 358 268 174 212 245 512 185 782 -85 382 -413
682 -792 722 -77 8 -128 12 -131 9z m179 -517 c155 -60 267 -210 279 -375 6
-90 -10 -164 -52 -242 -158 -295 -561 -315 -750 -39 -17 24 -34 55 -38 69 -4
14 -11 30 -15 35 -28 36 -28 199 -1 279 29 82 56 123 119 183 125 118 296 151
458 90z"/>
<path d="M5317 3924 c-1 -1 -33 -5 -71 -9 -199 -20 -400 -118 -548 -268 -38
-39 -76 -83 -85 -99 -10 -15 -21 -28 -25 -28 -4 0 -8 -4 -8 -9 0 -5 -15 -36
-34 -68 -36 -60 -66 -134 -86 -213 -7 -25 -15 -54 -18 -65 -3 -11 -6 -83 -7
-160 -2 -121 1 -153 22 -235 78 -307 294 -542 594 -648 112 -40 167 -47 324
-46 152 2 239 22 371 83 194 91 344 240 440 436 61 126 85 224 88 370 3 114 0
143 -39 315 -11 50 -94 206 -143 270 -174 228 -423 358 -715 373 -32 2 -59 2
-60 1z m169 -507 c79 -29 130 -61 182 -114 84 -87 124 -184 124 -300 0 -127
-42 -230 -131 -319 -215 -215 -579 -150 -705 127 -34 73 -43 122 -41 204 7
202 153 372 360 418 39 9 171 -2 211 -16z"/>
<path d="M6597 3920 c-9 -4 -12 -213 -12 -925 l1 -920 244 -3 245 -2 0 474 0
475 25 -22 c14 -12 27 -25 30 -28 3 -3 32 -30 66 -60 57 -51 222 -201 270
-244 12 -11 38 -35 59 -54 l37 -33 31 28 c17 16 40 38 52 49 27 25 182 166
254 231 30 27 66 60 80 74 15 14 36 33 47 42 l20 18 0 -473 0 -472 245 -3 244
-2 0 925 c0 609 -3 925 -10 926 -14 1 -177 1 -196 0 -9 -1 -27 -11 -41 -23
-14 -13 -67 -61 -118 -108 -51 -47 -101 -92 -110 -100 -9 -8 -59 -53 -110
-100 -51 -47 -105 -96 -119 -109 -14 -12 -66 -60 -115 -105 -133 -122 -149
-136 -155 -136 -3 0 -27 19 -52 43 -25 23 -86 79 -135 123 -49 45 -101 92
-115 105 -14 13 -48 44 -75 68 -45 40 -158 143 -311 284 -34 31 -68 57 -75 58
-53 4 -191 3 -201 -1z"/>
</g>
</svg>
