<?xml version="1.0" standalone="no"?>
<!DOCTYPE svg PUBLIC "-//W3C//DTD SVG 20010904//EN"
 "http://www.w3.org/TR/2001/REC-SVG-20010904/DTD/svg10.dtd">
<svg version="1.0" xmlns="http://www.w3.org/2000/svg"
 width="1795.000000pt" height="1795.000000pt" viewBox="0 0 1795.000000 1795.000000"
 preserveAspectRatio="xMidYMid meet">
<metadata>
Created by potrace 1.14, written by Peter Selinger 2001-2017
</metadata>
<g transform="translate(0.000000,1795.000000) scale(0.100000,-0.100000)"
fill="#000000" stroke="none">
<path d="M657 9904 c-1 -1 -33 -4 -72 -8 -232 -22 -435 -153 -524 -339 -43
-90 -53 -133 -53 -234 0 -298 311 -562 662 -563 107 -1 180 -59 180 -145 0
-87 -68 -140 -176 -139 -44 1 -73 8 -100 23 -40 22 -74 69 -74 100 0 17 -18
18 -247 17 l-248 -1 3 -45 c15 -227 212 -432 477 -498 93 -23 292 -23 379 -1
184 47 312 136 404 277 157 243 76 551 -189 728 -37 24 -74 44 -82 44 -9 0
-18 4 -21 9 -10 16 -160 50 -246 56 -113 8 -153 20 -189 56 -52 51 -53 134 -3
184 47 47 116 63 194 45 53 -13 118 -71 118 -106 0 -12 6 -24 13 -26 6 -2 118
-4 247 -3 l235 0 -2 51 c-7 148 -122 319 -277 413 -84 50 -208 89 -315 99 -50
4 -93 7 -94 6z"/>
<path d="M1718 9902 l-37 -3 0 -925 1 -924 244 0 243 0 0 226 -1 226 59 60 59
59 281 -286 281 -285 346 2 346 3 -457 459 -456 458 466 464 c272 271 459 464
449 465 -71 2 -664 1 -667 -2 -2 -2 -162 -161 -354 -353 -319 -318 -351 -347
-352 -320 0 16 0 174 0 352 l0 322 -27 1 c-112 3 -394 3 -424 1z"/>
<path d="M3835 9900 l-39 -5 0 -920 0 -920 244 0 244 0 1 918 c0 526 -4 921
-9 924 -11 7 -388 10 -441 3z"/>
<path d="M4725 9902 c-21 -3 -21 -3 -20 -925 l0 -922 575 0 575 0 1 243 1 242
-333 0 -334 0 0 680 0 680 -42 1 c-160 3 -406 4 -423 1z"/>
<path d="M6256 9900 l-28 -5 0 -905 c1 -498 1 -913 1 -922 1 -17 35 -18 576
-18 l575 0 0 23 c1 23 1 378 0 435 l0 32 -333 0 -332 0 0 680 c0 448 -3 680
-10 681 -69 3 -428 3 -449 -1z"/>
<path d="M8307 9904 c-1 -1 -38 -4 -82 -7 -175 -11 -320 -71 -435 -179 -140
-130 -200 -327 -155 -502 27 -102 65 -166 150 -251 63 -64 98 -89 165 -122
101 -49 196 -74 305 -80 138 -8 211 -60 209 -149 -2 -56 -26 -92 -80 -118
-106 -53 -251 -2 -271 94 l-5 27 -236 -1 c-131 -1 -242 -4 -248 -8 -13 -9 -2
-84 22 -158 59 -176 246 -328 464 -379 119 -28 293 -23 405 11 203 60 361 203
420 378 29 85 29 225 0 310 -51 151 -150 262 -299 336 -105 52 -184 72 -311
81 -147 10 -208 53 -208 150 0 80 65 135 162 138 89 3 162 -39 182 -103 l11
-37 245 0 245 0 -7 58 c-24 229 -235 438 -496 493 -33 6 -149 21 -152 18z"/>
<path d="M9953 9902 l-43 -3 0 -925 0 -924 244 0 243 0 1 228 c0 125 1 235 1
245 1 16 13 17 152 15 l152 -3 141 -242 141 -243 278 0 c152 0 277 3 277 8 -1
4 -88 156 -194 337 -146 248 -190 332 -180 338 23 13 101 120 132 182 53 105
73 187 74 300 1 129 -30 246 -94 353 -44 74 -148 180 -226 230 -69 44 -188 88
-268 98 -52 6 -754 12 -831 6z m804 -416 c201 -47 277 -302 132 -444 -71 -70
-94 -76 -301 -80 l-188 -4 -1 31 c0 17 -1 132 -1 256 0 124 1 229 1 234 1 5
11 11 24 13 39 5 305 1 334 -6z"/>
<path d="M12668 9906 c-1 -2 -39 -6 -83 -9 -207 -16 -403 -107 -561 -262 -184
-181 -277 -403 -277 -660 1 -424 281 -787 691 -897 86 -22 314 -34 373 -18 19
5 48 11 64 13 70 10 203 66 291 122 234 148 394 403 421 668 19 181 -4 332
-73 489 -67 151 -198 306 -338 396 -62 41 -97 58 -201 103 -42 18 -143 40
-210 45 -38 3 -75 7 -82 9 -6 2 -13 2 -15 1z m106 -502 c195 -51 328 -216 335
-414 10 -308 -296 -531 -586 -428 -202 71 -328 292 -284 499 13 63 43 139 54
139 4 0 7 6 7 13 0 20 97 114 147 144 97 57 222 75 327 47z"/>
<path d="M14745 9903 c-427 -20 -768 -294 -876 -703 -18 -67 -23 -112 -23
-215 0 -71 3 -143 6 -160 67 -350 293 -617 615 -725 117 -39 162 -45 318 -44
135 1 206 14 315 56 238 93 433 286 524 518 22 57 31 88 53 175 3 11 7 77 9
147 6 195 -32 338 -139 518 -73 124 -228 264 -372 338 -36 18 -148 58 -185 67
-100 22 -179 31 -245 28z m167 -511 c347 -124 398 -582 88 -789 -128 -84 -311
-89 -448 -11 -109 62 -199 185 -217 298 -13 78 -13 99 1 171 32 168 163 306
329 345 70 16 179 10 247 -14z"/>
<path d="M16008 9899 c-8 -5 -14 -1383 -8 -1811 l0 -38 244 0 244 0 0 466 c0
256 3 468 5 471 3 2 14 -4 24 -14 28 -26 104 -96 213 -193 52 -47 101 -92 111
-100 145 -133 131 -125 166 -93 37 34 197 181 277 254 33 30 84 77 115 106
l56 52 3 -475 2 -474 243 0 244 0 0 925 0 925 -26 1 c-51 1 -146 1 -171 0 -24
-1 -50 -22 -150 -115 -25 -23 -94 -87 -155 -141 -60 -55 -117 -107 -125 -115
-9 -8 -41 -37 -71 -64 -29 -27 -96 -87 -148 -135 -110 -101 -131 -117 -140
-105 -3 5 -51 50 -105 99 -55 50 -107 97 -116 105 -9 8 -56 51 -105 95 -48 44
-100 91 -115 105 -15 14 -43 39 -61 55 -19 17 -80 73 -137 124 l-102 93 -101
2 c-56 0 -105 -2 -111 -5z"/>
</g>
</svg>
