<?xml version="1.0" encoding="UTF-8" standalone="no"?><!DOCTYPE svg PUBLIC "-//W3C//DTD SVG 1.1//EN" "http://www.w3.org/Graphics/SVG/1.1/DTD/svg11.dtd"><svg width="100%" height="100%" viewBox="0 0 500 709" version="1.1" xmlns="http://www.w3.org/2000/svg" xmlns:xlink="http://www.w3.org/1999/xlink" xml:space="preserve" xmlns:serif="http://www.serif.com/" style="fill-rule:evenodd;clip-rule:evenodd;"><path d="M316.204,62.32c54.557,27.429 92.02,83.914 92.02,149.08c-0,92.03 -74.716,166.746 -166.746,166.746c-32.79,0 -63.383,-9.485 -89.19,-25.865l3.518,-0c24.968,15.228 54.303,24.007 85.672,24.007c91.004,-0 164.887,-73.884 164.887,-164.888c0,-64.394 -36.993,-120.216 -90.874,-147.358l0.713,-1.722Zm-9.879,14.094c50.354,23.936 85.205,75.287 85.205,134.714c-0,82.273 -66.796,149.069 -149.07,149.069c-24.354,0 -47.353,-5.852 -67.666,-16.229c-0,-0 -0,-3.231 -0,-3.231c20.237,10.596 43.257,16.591 67.666,16.591c80.69,0 146.201,-65.51 146.201,-146.2c-0,-57.802 -33.615,-107.815 -82.336,-131.532l-0,-3.182Zm-99.667,130.31c-0.736,0.73 -1.481,1.439 -2.236,2.126c-9.867,-12.544 -73.981,-94.05 -73.981,-94.05l-3.458,-4.396l-0,241.248l-2.673,-0l-0,-242.621c-0,0 5.501,0 5.501,0l76.847,97.693Zm13.416,17.055l75.516,96.001l-0,-276.419c-0,-0 2.673,-0 2.673,-0c-0,-0 -0,277.791 -0,277.791c-0,0 -5.502,0 -5.502,0c0,0 -65.47,-83.23 -74.962,-95.296c0.765,-0.676 1.523,-1.368 2.275,-2.077l-0,0Zm-103.608,-119.851c-24.848,28.869 -39.876,66.429 -39.876,107.472c0,34.573 10.664,66.674 28.88,93.196l0,3.245c-19.356,-27.24 -30.738,-60.522 -30.738,-96.441c-0,-40.935 14.782,-78.444 39.292,-107.472l2.442,-0Zm18.961,130.904l25.899,-0c20.432,-0 37.862,-7.215 52.291,-21.643c14.428,-14.428 21.642,-31.859 21.642,-52.291c0,-20.433 -7.214,-37.863 -21.642,-52.291c-14.429,-14.428 -31.859,-21.643 -52.291,-21.643c-0,0 -65.458,0 -65.458,0c-0.005,0 -4.604,0.024 -4.604,0.024c-0,0 -0,-2.697 -0,-2.697c-0,0 70.062,0 70.062,0c21.109,0 39.153,7.491 54.134,22.472c14.981,14.981 22.472,33.026 22.472,54.135c0,21.109 -7.491,39.154 -22.472,54.135c-14.981,14.98 -33.025,22.472 -54.134,22.472l-25.899,-0l-0,-2.673Zm152.101,-162.816c-4.692,-1.521 -9.483,-2.809 -14.363,-3.853c0,-0 0,-2.933 0,-2.933c4.88,1.023 9.672,2.286 14.363,3.774l0,3.012Zm-129.207,-5.15c24.475,-14.125 52.879,-22.212 83.157,-22.212c13.096,0 25.841,1.513 38.074,4.375l-0.63,1.762c-12.033,-2.799 -24.567,-4.278 -37.444,-4.278c-28.766,-0 -55.822,7.382 -79.373,20.353l-3.784,0Z" style="fill:#ffffff;fill-rule:nonzero;stroke:#ffffff;stroke-width:1.29px;"/><path d="M333.829,560.311c-6.591,7.321 -15.172,13.301 -23.753,18.039c-3.924,2.18 -7.412,3.634 -11.336,5.378c1.744,-4.506 3.488,-9.156 5.087,-13.952c1.889,-5.669 2.616,-12.935 3.633,-18.603c0.146,-1.018 -1.162,-1.454 -2.18,-1.018c-3.488,2.18 -5.377,4.506 -9.011,6.395c-5.668,2.907 -7.557,3.633 -8.574,3.052c-2.762,-1.889 7.266,-12.644 12.353,-7.557c1.018,1.162 2.18,0.436 1.163,-0.727c-5.232,-4.942 -13.226,-0.436 -16.859,4.36c-0.732,0.836 -1.313,1.974 -1.42,3.141c-2.764,2.043 -5.686,4.079 -8.608,5.87c-4.796,2.907 -9.447,4.941 -14.825,5.959c-14.388,2.47 -0.581,-17.005 3.779,-20.784c1.163,-1.598 -2.471,-2.47 -4.069,-1.308c-1.881,1.561 -3.993,4.212 -5.711,7.198c-0.321,-0.026 -0.74,-0.048 -1.265,-0.076c-10.319,2.18 -20.347,4.215 -29.794,8.284c-0,-0.145 -0.146,-0.291 -0.146,-0.436c-1.453,-2.616 -6.249,-8.72 -4.796,-12.063c1.599,-3.343 6.25,-4.651 10.755,-4.505c0.477,-0 0.826,0.543 1.167,1.119l0.137,0.232c0.341,0.577 0.69,1.119 1.167,1.119c4.069,-0.436 2.907,-4.65 -0.582,-5.813c-2.18,-0.727 -5.377,-0.145 -7.848,0.872c-5.086,1.889 -7.121,4.505 -7.702,7.412c-9.883,5.087 -21.074,9.302 -31.684,12.208c-3.633,1.018 -8.139,1.744 -12.063,1.308c-4.069,-0.436 -4.65,-3.488 -3.488,-6.249c2.035,-0.145 4.07,-0.872 5.959,-2.325c1.308,-1.163 3.343,-3.779 1.453,-5.378c-2.18,-1.744 -5.958,1.308 -7.557,2.471c-1.163,1.017 -2.035,2.18 -2.616,3.779l-0.872,-0.582c-1.308,0 -1.163,1.018 -0,1.599c0.145,0.145 0.291,0.145 0.436,0.145c-1.163,3.634 -0.291,7.558 4.505,8.139c12.79,1.89 32.992,-8.139 45.927,-12.935c0.436,3.924 2.325,7.848 3.633,12.063c-2.18,1.018 -4.069,2.326 -5.959,3.634c-2.325,1.453 -7.848,5.232 -9.301,8.138c-3.343,7.413 3.633,8.721 9.301,6.686c2.18,-0.727 4.07,-1.89 5.959,-3.634c4.651,-4.505 6.976,-10.173 4.796,-15.841c9.302,-4.07 19.62,-5.959 29.649,-8.139l0.212,-0.113c-4.044,7.67 -5.128,16.869 6.618,15.664c5.233,-0.581 10.465,-3.197 15.551,-6.54c2.804,-1.752 5.555,-3.663 8.061,-5.509c0.904,3.524 5.353,1.785 12.141,-1.467c2.762,-1.599 5.378,-3.634 8.139,-5.378c-2.907,11.627 -6.831,22.382 -11.336,33.282c-14.098,6.395 -29.213,10.9 -43.601,17.731c-11.046,5.087 -23.109,11.482 -31.247,20.929c-7.413,8.72 -11.191,19.911 -6.686,30.956c1.017,2.471 5.378,6.976 8.139,7.703c25.724,7.558 53.193,-27.178 64.675,-48.397c5.377,-10.028 10.173,-19.62 14.388,-29.648c13.023,-6.094 25.359,-12.777 34.586,-21.746c-1.084,3.864 -1.409,8.39 2.765,7.648c9.302,-1.599 27.905,-18.748 34.009,-19.911c3.924,-0.436 1.599,7.412 6.685,11.336c8.43,6.976 20.783,-0.436 28.05,-5.813c0.146,-1.018 0.291,-0.872 -1.017,-0.727c-6.54,4.651 -19.33,11.918 -25.579,4.941c-3.488,-3.488 -1.89,-12.353 -7.994,-12.353c-5.523,-0 -21.51,11.917 -26.015,15.405c-2.18,1.599 -5.813,3.489 -7.703,4.506c-3.342,1.889 3.052,-9.883 3.779,-10.61c4.505,-6.83 17.295,-21.945 24.852,-25.433c1.163,-0.727 -1.308,-3.634 -2.761,-3.198c-9.737,4.651 -21.51,20.638 -27.178,29.358c-0.102,0.166 -0.229,0.407 -0.373,0.709Zm-54.855,53.501c-6.83,12.79 -16.423,25.289 -27.468,35.172c-7.703,7.121 -16.714,13.516 -27.759,13.516c-13.662,0 -14.679,-12.644 -11.918,-23.399c4.215,-16.568 22.963,-26.597 37.642,-33.137c12.208,-5.668 27.033,-10.609 41.566,-16.859c-3.633,8.284 -7.557,16.569 -12.063,24.707Zm-113.184,-126.68c-1.55,-0 -3.805,0.052 -5.011,0.052c11.278,10.523 8.558,29.005 2.919,42.538c-12.998,31.79 -46.98,64.99 -75.638,79.554c-2.349,1.096 -7.204,3.132 -11.589,4.228c2.349,-11.275 5.794,-22.394 10.023,-33.669c4.228,-4.228 8.769,-7.987 13.624,-11.276c10.649,-7.36 20.828,-11.432 33.356,-14.564c2.349,-1.096 2.506,-1.409 0.157,-1.879c-16.913,4.385 -32.26,11.432 -45.258,22.864c8.926,-23.02 20.828,-44.945 33.982,-66.243c0.783,-1.409 -2.192,-2.192 -3.445,-1.096c-18.009,20.828 -28.971,46.668 -36.958,73.447l-2.036,2.349c-6.107,7.047 -13.154,14.72 -14.564,23.96c-2.036,13.781 15.504,9.866 24.274,5.637c11.588,-5.324 28.031,-17.226 37.114,-25.526c23.021,-20.984 57.003,-61.701 43.222,-93.804c-1.095,-2.464 -2.511,-4.651 -4.172,-6.572Zm-96.679,117.916c2.349,-5.168 3.132,-7.047 4.228,-8.77c2.192,-3.602 4.541,-7.047 7.204,-10.023c-2.506,9.397 -4.542,18.323 -6.421,27.562c-4.385,0.157 -7.36,-1.722 -5.011,-8.769Zm150.276,-34.4c0.726,5.086 -2.18,9.592 -6.395,11.917c-3.488,2.326 -11.918,2.18 -8.72,-3.779c1.598,-2.906 6.685,-6.54 8.72,-7.993c1.744,-1.308 3.633,-2.471 5.668,-3.488c0.436,1.163 0.581,2.325 0.727,3.343Zm-68.272,-89.195c1.372,0 4.676,-0.148 7.715,-0.148c-5.07,-3.073 -10.99,-4.736 -16.743,-5.141c-30.224,-1.722 -63.267,27.092 -79.554,50.113c-7.673,11.432 -14.877,24.117 -16.13,38.211l0,4.541c0,3.759 0.94,9.866 5.481,10.649c0.783,0.157 1.723,-0.313 2.506,-0.47c3.915,-0.783 2.036,-5.011 -0.626,-4.071c-0.783,1.096 -4.072,0.939 -4.698,-2.819c-0.47,-2.036 -0.47,-5.638 -0.314,-7.674c1.097,-13.311 8.3,-26.309 15.661,-36.958c13.937,-20.201 34.139,-37.584 57.473,-45.884c9.37,-3.3 19.519,-4.041 29.229,-0.349Zm20.601,72.481c0.727,-0.727 1.163,-1.017 1.599,-0.872c2.035,1.599 -1.889,3.924 -5.232,4.651c0.727,-0.872 1.453,-1.744 2.471,-2.616l1.162,-1.163Zm93.742,-18.312c-0.581,1.308 -0.726,3.342 0,4.069c0.727,0.727 3.198,0.291 3.779,-0.145c0.581,-0.436 1.017,-2.035 -0,-3.052c-1.017,-1.018 -3.197,-2.18 -3.779,-0.872Zm73.919,-113.807c8.999,0 16.68,3.182 23.044,9.546c6.363,6.363 9.545,14.045 9.545,23.043c0,9.049 -3.182,16.755 -9.545,23.118c-6.364,6.364 -14.045,9.546 -23.044,9.546c-9.048,-0 -16.754,-3.182 -23.118,-9.546c-6.364,-6.363 -9.545,-14.069 -9.545,-23.118c-0,-8.998 3.181,-16.68 9.545,-23.043c6.364,-6.364 14.07,-9.546 23.118,-9.546Zm-252.21,0c8.999,0 16.68,3.182 23.044,9.546c6.363,6.363 9.545,14.045 9.545,23.043c0,9.049 -3.182,16.755 -9.545,23.118c-6.364,6.364 -14.045,9.546 -23.044,9.546c-9.048,-0 -16.754,-3.182 -23.118,-9.546c-6.363,-6.363 -9.545,-14.069 -9.545,-23.118c-0,-8.998 3.182,-16.68 9.545,-23.043c6.364,-6.364 14.07,-9.546 23.118,-9.546Zm353.78,1.865l24.162,-0c8.502,-0 15.735,3.007 21.701,9.023c6.016,6.016 9.024,13.274 9.024,21.776c-0,8.452 -3.008,15.685 -9.024,21.701c-5.966,6.016 -13.174,9.023 -21.626,9.023l-0,0.075l-24.237,-0l0,-61.598Zm-436.781,-0l20.508,-0c6.165,-0 11.435,2.187 15.81,6.562c4.375,4.375 6.562,9.645 6.562,15.81c0,6.165 -2.187,11.435 -6.562,15.81c-4.375,4.375 -9.645,6.562 -15.81,6.562l-18.643,0l-0,16.779l-1.865,0l0,-61.523Zm83.001,-0c-8.501,-0 -15.76,3.007 -21.775,9.023c-6.016,6.016 -9.024,13.249 -9.024,21.701c0,8.502 3.008,15.76 9.024,21.776c6.015,6.016 13.274,9.023 21.775,9.023c8.452,0 15.686,-3.007 21.701,-9.023c6.016,-6.016 9.024,-13.274 9.024,-21.776c-0,-8.452 -3.008,-15.685 -9.024,-21.701c-6.015,-6.016 -13.249,-9.023 -21.701,-9.023Zm252.21,-0c-8.501,-0 -15.76,3.007 -21.776,9.023c-6.015,6.016 -9.023,13.249 -9.023,21.701c0,8.502 3.008,15.76 9.023,21.776c6.016,6.016 13.275,9.023 21.776,9.023c8.452,0 15.686,-3.007 21.701,-9.023c6.016,-6.016 9.024,-13.274 9.024,-21.776c-0,-8.452 -3.008,-15.685 -9.024,-21.701c-6.015,-6.016 -13.249,-9.023 -21.701,-9.023Zm-89.116,2.535l0,58.988l-1.864,0l-0,-61.523l2.386,-0l42.806,58.988l-0,-58.988l1.864,-0l-0,61.523l-2.386,0l-42.806,-58.988Zm132.891,-2.535l22.372,-0c6.165,-0 11.435,2.187 15.81,6.562c4.375,4.375 6.563,9.645 6.563,15.81c-0,6.165 -2.188,11.435 -6.563,15.81c-2.038,2.038 -4.275,3.604 -6.711,4.698l10.738,18.643l-2.237,0l-10.291,-17.897c-2.287,0.745 -4.723,1.118 -7.309,1.118l-20.507,0l-0,16.779l-1.865,0l0,-61.523Zm-211.194,-0l35.423,-0l-0,1.864l-33.559,0l0,27.965l26.101,0l0,1.865l-26.101,-0l0,27.965l33.559,0l-0,1.864l-35.423,0l0,-61.523Zm-39.151,57.235l-0,2.424l33.558,0l0,1.864l-35.423,0l0,-4.032c0.62,-0.099 1.241,-0.184 1.865,-0.256Zm310.005,-55.371l-0,57.87l22.297,-0l0,-0.075c8.005,0 14.816,-2.834 20.434,-8.501c5.617,-5.618 8.426,-12.405 8.426,-20.359c0,-8.004 -2.809,-14.84 -8.426,-20.508c-5.618,-5.618 -12.429,-8.427 -20.434,-8.427l-22.297,0Zm-310.005,49.111c-0.622,0.082 -1.243,0.174 -1.865,0.277l0,-51.252l1.865,-0l-0,50.975Zm252.21,-49.111l-0,41.016l20.507,-0c5.668,-0 10.503,-2.001 14.505,-6.003c4.002,-4.003 6.003,-8.837 6.003,-14.505c0,-5.668 -2.001,-10.503 -6.003,-14.505c-4.002,-4.002 -8.837,-6.003 -14.505,-6.003l-20.507,0Zm-378.986,0l-0,41.016l18.643,-0c5.668,-0 10.503,-2.001 14.505,-6.003c4.002,-4.003 6.003,-8.837 6.003,-14.505c0,-5.668 -2.001,-10.503 -6.003,-14.505c-4.002,-4.002 -8.837,-6.003 -14.505,-6.003l-18.643,0Zm89.414,-9.322l-8.278,-8.352l-8.352,8.352l-2.685,0l11.037,-10.962l10.963,10.962l-2.685,0Z" style="fill:#ffffff;fill-rule:nonzero;stroke:#ffffff;stroke-width:1.29px;"/></svg>